<?xml version="1.0" encoding="utf-8"?>
<!-- Generator: Adobe Illustrator 22.0.0, SVG Export Plug-In . SVG Version: 6.00 Build 0)  -->
<svg version="1.1" id="OBJECTS" xmlns="http://www.w3.org/2000/svg" xmlns:xlink="http://www.w3.org/1999/xlink" x="0px" y="0px"
	 viewBox="0 0 500 500" style="enable-background:new 0 0 500 500;" xml:space="preserve">
<style type="text/css">
	.st0{fill:#D6EAF2;}
	.st1{fill:#55C3FE;}
	.st2{fill:#179ECC;}
	.st3{fill:#97DFFF;}
	.st4{fill:#35AFE5;}
	.st5{fill:#E6F7FF;}
	.st6{fill:#FFFFFF;}
	.st7{fill:#CBE9F4;}
	.st8{fill:#144682;}
	.st9{fill:#2D5CA0;}
	.st10{fill:#1890C6;}
	.st11{fill:#C4DDE8;}
	.st12{fill:#EA4266;}
	.st13{fill:#E5E5E5;}
	.st14{fill:#F4F4F4;}
	.st15{fill:#FE7386;}
	.st16{fill:#EF92A9;}
	.st17{fill:#E2E2E2;}
	.st18{fill:#C7EBF9;}
	.st19{fill:#4C4C4C;}
	.st20{fill:#112F5B;}
	.st21{fill:#164072;}
	.st22{fill:url(#SVGID_1_);}
	.st23{fill:url(#SVGID_2_);}
	.st24{fill:url(#SVGID_3_);}
	.st25{fill:#32A5C4;}
	.st26{fill:#ADF8FF;}
	.st27{fill:#0A253F;}
	.st28{fill:#0B2D4F;}
	.st29{fill:#FFD629;}
	.st30{fill:#FFF42C;}
	.st31{fill:#1D6BAA;}
	.st32{fill:#155A93;}
	.st33{fill:#227CC6;}
	.st34{fill:#1D76B2;}
	.st35{fill:#11385E;}
	.st36{fill:#0F2C49;}
	.st37{fill:#AAAAAA;}
	.st38{fill:#FCFCFC;}
	.st39{fill:#4F4F4F;}
	.st40{fill:#FFB6C2;}
	.st41{fill:#D8D8D8;}
	.st42{fill:#0B223D;}
	.st43{fill:url(#SVGID_4_);}
	.st44{fill:#604B4B;}
	.st45{fill:#FFA9B8;}
	.st46{fill:#FFC0CF;}
	.st47{fill:#FC88A1;}
</style>
<g>
	<polyline class="st0" points="186.4,234.9 53.5,314.3 136,362.1 241,320 186.8,238.5 	"/>
	<g>
		<g>
			<g>
				<g>
					<g>
						<path class="st1" d="M254.4,292.3L254.4,292.3l0-6.4l-4.6,2.3l-8.1-4.7c-2.6-1.5-6.9-1.5-9.6,0l-81.5,47.1l-4.6-2.3v6.4l0,0
							c-0.1,1.1,0.5,2.2,2,3l10.8,6.2c2.6,1.5,6.9,1.5,9.6,0l84.2-48.6C253.9,294.4,254.5,293.3,254.4,292.3z"/>
						<path class="st2" d="M150.6,330.5l-4.6-2.3v6.4l0,0c-0.1,1.1,0.5,2.2,2,3l10.8,6.2c1.3,0.7,3,1.1,4.6,1.1v-21.8L150.6,330.5z"
							/>
						<path class="st3" d="M158.7,337c2.6,1.5,6.9,1.5,9.6,0l84.2-48.6c2.6-1.5,2.6-4,0-5.5l-10.8-6.2c-2.6-1.5-6.9-1.5-9.6,0
							L148,325.3c-2.6,1.5-2.6,4,0,5.5L158.7,337z"/>
					</g>
					<g>
						<polygon class="st2" points="184.2,320.3 178.3,316.9 178.3,286.9 216.2,265.1 						"/>
						<polygon class="st4" points="222.1,298.4 184.2,320.3 184.2,290.2 222.1,268.4 						"/>
					</g>
					<path class="st4" d="M284.4,109.8l-5.5-3.1c-0.1-0.1-0.2-0.2-0.4-0.2l0,0l0,0c-0.5-0.2-1.2-0.1-2,0.3l-158.4,91.5
						c-1.7,1-3.1,3.4-3.1,5.3v121.7c0,1,0.3,1.7,0.9,2c0.1,0,0.2,0.1,0.3,0.1l5.5,3.1l1.1-5.9l-1.6,0.7l155.4-89.7
						c1.7-1,3.1-3.4,3.1-5.3V113.2L284.4,109.8z"/>
					<path class="st3" d="M278.9,106.7c-0.1-0.1-0.2-0.2-0.4-0.2l0,0l0,0c-0.5-0.2-1.2-0.1-2,0.3l-158.4,91.5
						c-0.7,0.4-1.4,1.1-1.9,1.9L222.1,267l54.5-31.4c1.7-1,3.1-3.4,3.1-5.3V113.2l4.8-3.3L278.9,106.7z"/>
					<path class="st1" d="M285.3,233.5c0,2-1.4,4.3-3.1,5.3l-158.4,91.5c-1.7,1-3.1,0.2-3.1-1.8V206.8c0-2,1.4-4.3,3.1-5.3
						L282.3,110c1.7-1,3.1-0.2,3.1,1.8V233.5z"/>
					<polygon class="st5" points="282.3,224.6 123.8,316.1 123.8,206.6 282.3,115.1 					"/>
					<polygon class="st6" points="280.8,115.9 280.8,223.4 123.8,314 123.8,316.1 282.3,224.6 282.3,115.1 					"/>
				</g>
				<g>
					<g>
						<polygon class="st7" points="267.5,142 204.3,178.5 204.3,174.8 267.5,138.3 						"/>
						<polygon class="st7" points="267.5,148.4 168.8,205.4 168.8,201.8 267.5,144.8 						"/>
						<polygon class="st7" points="267.5,154.9 168.8,211.9 168.8,208.3 267.5,151.3 						"/>
						<polygon class="st7" points="267.5,161.4 168.8,218.4 168.8,214.7 267.5,157.7 						"/>
						<polygon class="st7" points="267.5,167.8 168.8,224.8 168.8,221.2 267.5,164.2 						"/>
						<polygon class="st7" points="267.5,174.3 168.8,231.3 168.8,227.7 267.5,170.7 						"/>
						<polygon class="st7" points="267.5,187.3 204.3,223.8 204.3,220.1 267.5,183.6 						"/>
						<polygon class="st7" points="267.5,193.7 168.8,250.7 168.8,247.1 267.5,190.1 						"/>
						<polygon class="st7" points="267.5,200.2 168.8,257.2 168.8,253.6 267.5,196.6 						"/>
						<polygon class="st7" points="267.5,206.7 168.8,263.7 168.8,260 267.5,203 						"/>
						<polygon class="st7" points="267.5,213.1 168.8,270.1 168.8,266.5 267.5,209.5 						"/>
						<polygon class="st7" points="216.1,249.3 168.8,276.6 168.8,273 216.1,245.6 						"/>
					</g>
				</g>
			</g>
			<g>
				<g>
					<g>
						<g>
							<polygon class="st8" points="420.5,327.6 335.6,278.5 319.1,162.8 335.6,153.4 420.5,202.5 							"/>
							<polygon class="st6" points="416.3,325.4 402,332.7 319.5,167.1 335.2,158.1 416.3,204.9 							"/>
							<polygon class="st9" points="404.1,337 319.1,287.9 319.1,162.8 404.1,211.9 							"/>
						</g>
					</g>
					<g>
						<g>
							<polygon class="st10" points="401.4,338.7 316.4,289.6 300,173.9 316.4,164.5 401.4,213.5 							"/>
							<polygon class="st6" points="397.1,336.5 382.9,343.8 300.4,178.1 316,169.2 397.1,216 							"/>
							<polygon class="st1" points="384.9,348 300,299 300,173.9 384.9,222.9 							"/>
							<polygon class="st11" points="300,299 300,173.9 384.9,222.9 							"/>
						</g>
						<polygon class="st12" points="321.7,179.2 314.4,175.2 314.4,159.8 318.1,164.9 321.7,162.5 						"/>
					</g>
				</g>
				<g>
					<g>
						<polygon class="st0" points="246,407.1 178.4,368.1 148.9,352.1 254.4,293.5 374.4,345.6 268.2,407.1 						"/>
						<polygon class="st8" points="267.3,406 188.6,360.6 188.6,342.9 294.2,299.6 372.8,345 						"/>
						<polygon class="st13" points="294.2,293.9 192.5,341.1 192.5,357.1 267.3,400.3 372.8,339.4 						"/>
						<polygon class="st14" points="294.2,289.9 277.3,297.7 277.3,348.2 192.5,348.2 192.5,353 267.3,396.2 372.8,335.3 						"/>
						<polygon class="st6" points="294.2,286.1 277.3,293.9 277.3,348.2 192.5,348.2 192.5,349.3 267.3,392.5 372.8,331.5 						"/>
						<polygon class="st9" points="267.3,388.3 188.6,342.9 294.2,282 372.8,327.4 						"/>
					</g>
					<g>
						<polygon class="st10" points="267.5,382 192.8,338.9 192.8,322.1 293.1,281 367.8,324.1 						"/>
						<polygon class="st13" points="293.1,275.6 196.5,320.4 196.5,335.7 267.5,376.7 367.8,318.8 						"/>
						<polygon class="st14" points="293.1,271.7 277.1,279.1 277.1,327.1 196.5,327.1 196.5,331.8 267.5,372.8 367.8,314.9 						
							"/>
						<polygon class="st6" points="293.1,268.1 277.1,275.6 277.1,327.1 196.5,327.1 196.5,328.2 267.5,369.2 367.8,311.3 						"/>
						<polygon class="st1" points="267.5,365.3 192.8,322.1 293.1,264.2 367.8,307.4 						"/>
					</g>
					<g>
						<polygon class="st12" points="268.1,361 196.6,319.7 196.6,303.7 292.5,264.4 364,305.6 						"/>
						<polygon class="st13" points="292.5,259.2 200.2,302.1 200.2,316.6 268.1,355.8 364,300.5 						"/>
						<polygon class="st14" points="292.5,255.5 277.2,262.6 277.2,308.5 200.2,308.5 200.2,312.9 268.1,352.1 364,296.8 						"/>
						<polygon class="st6" points="292.5,252.1 277.2,259.2 277.2,308.5 200.2,308.5 200.2,309.5 268.1,348.7 364,293.4 						"/>
						<polygon class="st15" points="268.1,345 196.6,303.7 292.5,248.4 364,289.6 						"/>
						<polygon class="st16" points="196.6,303.7 253.4,336.5 300.7,309.1 244,276.4 						"/>
						<polygon class="st16" points="239.4,279 292.5,248.4 331.4,270.8 						"/>
					</g>
				</g>
			</g>
			<g>
				<path class="st17" d="M382.9,172.9c-2.5-3.6,0.5-28.6-3.1-30.9c0-0.6,0-1.2-0.1-1.8c0.8-0.2-16.9-21.1-20.5-17.8
					c-3.6,3.3-0.8,8.8-0.8,8.8s0.2,0.9-1.2,1.5c0.8,0.3,1.6,0.4,2.3,0.3c0,0.2,0.1,0.4,0.1,0.7c0,0,0,0,0,0c0,0,0,0,0,0
					c0.2,1.2,0.4,2.6,0.8,4c0.4,1.5,0.7,2.9,1,4.2c-0.2,0.1-0.3,0.3-0.5,0.5c-0.1,0-0.1,0.1-0.1,0.1c-0.1,0.1-0.2,0.2-0.3,0.3
					c-0.2,0.2-0.4,0.5-0.6,0.7c-6.4,8.2-4.3,17.9-8.2,21.1c-1.3,1.1-4.3,3.5-8,5l-5.1,1.2l-7.3-13.8l0.1,4.3l-0.1-0.2l0.4,11.1l0,0
					c-1.8,0.2-3.3,6-0.2,7.8c0.2,0.1,6.7,0.6,6.9,0.6l1,7.4l-0.3,7.1c-4,3.6-7.5,7.7-8.4,11.5c-2.6,10.5-1.6,34.7-1.6,34.7
					s0,0.1,0.1,0.2c-1.3,1-5.8,4.5-6.9,6.1c-0.1,0.2-0.2,0.3-0.2,0.5l0,0c0,0,0,0,0,0c-0.2,0.6,0.1,1.2,0.7,1.6l0,0
					c0.1,0,0.2,0.1,0.2,0.1c0,0,0.1,0,0.1,0.1c0.1,0,0.2,0.1,0.2,0.1c0.1,0,0.1,0,0.2,0.1c0.1,0,0.2,0,0.2,0c0.1,0,0.2,0,0.3,0
					c0.1,0,0.2,0,0.2,0c0.1,0,0.2,0,0.3,0c0.1,0,0.2,0,0.3,0c0.1,0,0.2,0,0.4,0c0.1,0,0.2,0,0.3,0c0.1,0,0.3-0.1,0.4-0.1
					c0.1,0,0.2,0,0.3-0.1c0.1,0,0.3-0.1,0.5-0.1c0.1,0,0.2-0.1,0.3-0.1c0.2-0.1,0.3-0.1,0.5-0.2c0.1,0,0.2-0.1,0.3-0.1
					c0.3-0.1,0.5-0.3,0.8-0.4c4.8-2.5,5.8-3.2,6.7-3.7c0.2-0.1,0.3-0.2,0.4-0.3c0,0,0,0,0.1-0.1c0.1-0.1,0.2-0.2,0.2-0.4
					c0,0,0,0,0,0c0-0.1,0.1-0.3,0.1-0.4c0,0,0-0.1,0-0.1c0-0.2,0-0.4,0-0.6c0.1-0.1,0.2-0.1,0.2-0.1l4-35.5c0,0,6.4,10.6,11.2,8.7
					c-3,3.7-2.3-1-2.9,2.9c-1.5,10.7-1.5,33.9-1.5,33.9s0.1,0.1,0.2,0.2c-1.5,1.2-5.6,4.4-6.6,5.9c-0.1,0.2-0.2,0.3-0.2,0.5l0,0
					c0,0,0,0,0,0c-0.2,0.6,0,1.2,0.7,1.6l0,0c0.1,0,0.2,0.1,0.2,0.1c0,0,0.1,0,0.1,0.1c0.1,0,0.2,0.1,0.2,0.1c0.1,0,0.1,0,0.2,0.1
					c0.1,0,0.2,0,0.2,0c0.1,0,0.2,0,0.3,0c0.1,0,0.2,0,0.2,0c0.1,0,0.2,0,0.3,0c0.1,0,0.2,0,0.3,0c0.1,0,0.2,0,0.4,0
					c0.1,0,0.2,0,0.3,0c0.1,0,0.3-0.1,0.4-0.1c0.1,0,0.2,0,0.3-0.1c0.1,0,0.3-0.1,0.5-0.1c0.1,0,0.2-0.1,0.3-0.1
					c0.2-0.1,0.3-0.1,0.5-0.2c0.1,0,0.2-0.1,0.3-0.1c0.3-0.1,0.6-0.3,0.8-0.4c4.8-2.5,5.8-3.2,6.7-3.7c0.2-0.1,0.3-0.2,0.4-0.3
					c0,0,0-0.1,0.1-0.1c0.1-0.1,0.2-0.2,0.2-0.4c0,0,0,0,0,0c0-0.1,0.1-0.3,0.1-0.4c0,0,0-0.1,0-0.1c0-0.4-0.1-0.8-0.1-1.4
					c0-0.1-0.1-0.3-0.2-0.4c0.2-0.2,4.8-45.7,4.8-45.7s18.9-8.5,21.5-9.9C392.8,191.5,382.9,172.9,382.9,172.9z"/>
				<g>
					<path class="st18" d="M355.5,130.9c0,0,0.1-1,2.8,5.1c2.7,6.1-3.8,25.5-5.4,27.6c-1.6,2.1-21.1,8.1-25.4,1.5
						c2.7-1.4,0.1-3.4,0.6-6.5c8,2.8,15.9-3.6,18.4-5.6C350.6,149.7,348.1,139.3,355.5,130.9z"/>
					<g>
						<g>
							<g>
								<path class="st6" d="M324.4,229.7c0,0-5.9,4.5-7.2,6.3c-1.3,1.9,1.5,3.8,6.3,1.3c4.8-2.5,5.8-3.2,6.7-3.7
									c0.9-0.5,0.7-1.3,0.6-2.6C330.5,229.6,324.4,229.7,324.4,229.7z"/>
								<path class="st19" d="M330.1,232.8c-0.9,0.5-1.9,1.2-6.7,3.7c-3.6,1.9-6,1.2-6.5,0c-0.5,1.7,2.1,3.1,6.5,0.8
									c4.8-2.5,5.8-3.2,6.7-3.7c0.7-0.4,0.8-0.9,0.7-1.8C330.7,232.3,330.5,232.6,330.1,232.8z"/>
							</g>
							<path class="st20" d="M375.3,172.6c0,0-0.2,13.4-12.1,16.4c-11.9,2.9-24.4,9-24.4,9l-7.8,33.8c0,0-1.7,0.8-3.3,0.5
								c-2.7-0.5-3.7-2.5-3.7-2.5s-0.9-24.2,1.6-34.7c2.6-10.5,23.9-22.8,23.9-22.8L375.3,172.6z"/>
							<g>
								<g>
									<path class="st6" d="M342.5,241.4c0,0-5.9,4.5-7.2,6.3c-1.3,1.9,1.5,3.8,6.3,1.3c4.8-2.5,5.8-3.2,6.7-3.7
										c0.9-0.5,0.8-1.3,0.6-2.6C348.7,241.4,342.5,241.4,342.5,241.4z"/>
									<path class="st19" d="M348.3,244.5c-0.9,0.5-1.9,1.2-6.7,3.7c-3.6,1.9-6,1.2-6.5,0c-0.5,1.7,2.1,3.1,6.5,0.8
										c4.8-2.5,5.8-3.2,6.7-3.7c0.7-0.4,0.8-0.9,0.7-1.8C348.9,244,348.7,244.3,348.3,244.5z"/>
								</g>
								<path class="st21" d="M387,180.5c0,0,1.1,13.4-10.4,17.5c-11.5,4.1-23.4,11.4-23.4,11.4L349,242c0,0-1.2,1.3-3.5,1.3
									c-2.4,0-3.7-1.6-3.7-1.6s-2.7-24.7-1.2-35.4c1.5-10.7,17.7-23.2,17.7-23.2L387,180.5z"/>
							</g>
						</g>
						<path class="st5" d="M347.8,173.4c0,0-1.3-40.1,11-44.8c12.2-4.7,23.5,6.5,28.3,17.3c4.8,10.8,3.5,29.6,0,36.6
							C370.2,194,347.3,178.9,347.8,173.4z"/>
						<path class="st6" d="M387,145.8c-4.8-10.8-16-22-28.3-17.3c-0.4,0.2-0.8,0.4-1.2,0.6c9,1.1,16.7,9.8,20.4,18.3
							c4.8,10.8,3.5,29.6,0,36.6c-1.7,1.2-3.4,2-5.2,2.7c4.8,0,9.7-1.2,14.2-4.2C390.6,175.5,391.8,156.6,387,145.8z"/>
						<g>
							
								<linearGradient id="SVGID_1_" gradientUnits="userSpaceOnUse" x1="385.4568" y1="163.7446" x2="365.5952" y2="163.7446" gradientTransform="matrix(1.088 -0.1698 0.2011 1.2882 -75.9178 -22.8982)">
								<stop  offset="0" style="stop-color:#FFE2C4"/>
								<stop  offset="1" style="stop-color:#FFB870"/>
							</linearGradient>
							<path class="st22" d="M355.3,110.7c0,0-3.1,4.9-0.3,15.5c2.2,8.6,2.6,13.4,6.1,13.7c3.6,0.4,14.3-2.3,13.2-11.2
								c1.1-0.2,3.3-4.3,1.5-7.6c-1.7-3.3-2.9,0.3-2.9,0.3s0.1-7.1-4.9-9.7C362.9,109.1,355.3,110.7,355.3,110.7z"/>
							<path class="st20" d="M367.1,119.2c0-0.4-3.8,5-10,3.3c2.1-0.6,2.6-2.1,2.6-2.1s-2.1,2.7-5.6,1.8c1.5-0.6,2.2-1.3,2.2-1.3
								s-2.3,1.2-4.6,0.3c1.4-0.6,1.2-1.5,1.2-1.5s-1.2,1.2-3.7-0.9c1-0.1,0.9-4.7,4.5-7.9c3.6-3.3,6.5-4,11.2-3.2
								c-1.2-1.2-2.4-1.9-4.1-1.6c1.9-1.1,5.9,0.8,7.1,2.6c3.7-1.4,10.7,1,8.4,14.5c0-0.3-0.4-2.5-1.7-3c-1.3-0.4-2.4,2.2-2.1,2.8
								c0.3,0.7,0.4,4.5,0.4,4.5l-1.7,0.9c0,0,0.5-3.3-0.7-4.4C369.5,123.1,367.4,124.3,367.1,119.2z"/>
						</g>
					</g>
					<g>
						<g>
							<polygon class="st6" points="326.2,149.5 333.4,159.2 356.9,153.7 355.5,184 334.2,183.8 327.2,175.2 							"/>
							<polygon class="st5" points="326.2,145.4 333.4,159.2 334.2,183.8 327.2,175.2 							"/>
						</g>
						<linearGradient id="SVGID_2_" gradientUnits="userSpaceOnUse" x1="362.1064" y1="171.3006" x2="346.5332" y2="173.7313">
							<stop  offset="0" style="stop-color:#FFB870"/>
							<stop  offset="1" style="stop-color:#FFE2C4"/>
						</linearGradient>
						<path class="st23" d="M361.6,170.2c0,0-0.7,1.1-2.3,0c-1.5-1.1-2.1-3-3-3.7c-0.1,2.4,0,4.1-3,4.1c-3-0.1-4.9-0.5-6.6-0.3
							c-1.7,0.1,0.3,7.6,9.1,7.8c4.8-0.3,6.9-3,6.9-3L361.6,170.2z"/>
						<linearGradient id="SVGID_3_" gradientUnits="userSpaceOnUse" x1="329.4671" y1="164.2775" x2="324.5613" y2="165.0432">
							<stop  offset="0" style="stop-color:#FFB870"/>
							<stop  offset="1" style="stop-color:#FFE2C4"/>
						</linearGradient>
						<path class="st24" d="M326.6,160.6c0,0,1.6,3.3,2.6,3.7c1,0.4,0.2,5.9-2.8,4.1C323.3,166.6,324.7,160.8,326.6,160.6z"/>
					</g>
					<path class="st18" d="M377.2,144.6c0,0,0.5-8.3,6.3-5c5.8,3.3,12,22.8,12,25.5c0,2.6-26.9,15.7-34.3,12.9
						c1.4-2.7,1.4-6.2-0.1-9c8.1-2.5,18.5-5.6,20.3-8.3C383.2,158.1,376.2,155.7,377.2,144.6z"/>
				</g>
			</g>
			<g>
				<polygon class="st1" points="212.6,437 91.4,367 91.4,362.4 252.1,409.7 252.1,414.2 				"/>
				<polygon class="st4" points="212.6,437 91.4,367 91.4,362.4 212.6,432 212.6,436.6 				"/>
				<polygon class="st3" points="212.6,432.4 91.4,362.4 130.8,339.7 252.1,409.7 				"/>
				<g>
					<g>
						<g>
							<polygon class="st25" points="134.4,352.5 126.4,347.9 126.4,346.9 139.5,348.5 139.5,349.5 							"/>
							<polygon class="st26" points="134.4,351.5 126.4,346.9 131.5,343.9 139.5,348.5 							"/>
						</g>
						<g>
							<polygon class="st25" points="142.9,357.4 134.9,352.8 134.9,351.8 148.1,353.5 148.1,354.5 							"/>
							<polygon class="st26" points="142.9,356.5 134.9,351.8 140.1,348.9 148.1,353.5 							"/>
						</g>
						<g>
							<polygon class="st25" points="151.5,362.4 143.5,357.8 143.5,356.8 156.6,358.4 156.6,359.4 							"/>
							<polygon class="st26" points="151.5,361.4 143.5,356.8 148.6,353.8 156.6,358.4 							"/>
						</g>
						<g>
							<polygon class="st25" points="160,367.3 152,362.7 152,361.7 165.2,363.4 165.2,364.3 							"/>
							<polygon class="st26" points="160,366.3 152,361.7 157.2,358.8 165.2,363.4 							"/>
						</g>
						<g>
							<polygon class="st25" points="168.6,372.3 160.6,367.7 160.6,366.7 173.7,368.3 173.7,369.3 							"/>
							<polygon class="st26" points="168.6,371.3 160.6,366.7 165.7,363.7 173.7,368.3 							"/>
						</g>
						<g>
							<polygon class="st25" points="177.1,377.2 169.1,372.6 169.1,371.6 182.3,373.3 182.3,374.2 							"/>
							<polygon class="st26" points="177.1,376.2 169.1,371.6 174.3,368.7 182.3,373.3 							"/>
						</g>
						<g>
							<polygon class="st25" points="185.7,382.2 177.7,377.6 177.7,376.6 190.9,378.2 190.9,379.2 							"/>
							<polygon class="st26" points="185.7,381.2 177.7,376.6 182.9,373.6 190.9,378.2 							"/>
						</g>
						<g>
							<polygon class="st25" points="194.3,387.1 186.3,382.5 186.3,381.5 199.4,383.2 199.4,384.1 							"/>
							<polygon class="st26" points="194.3,386.1 186.3,381.5 191.4,378.5 199.4,383.2 							"/>
						</g>
						<g>
							<polygon class="st25" points="202.8,392.1 194.8,387.4 194.8,386.5 208,388.1 208,389.1 							"/>
							<polygon class="st26" points="202.8,391.1 194.8,386.5 200,383.5 208,388.1 							"/>
						</g>
						<g>
							<polygon class="st25" points="211.4,397 203.4,392.4 203.4,391.4 216.5,393.1 216.5,394 							"/>
							<polygon class="st26" points="211.4,396 203.4,391.4 208.5,388.4 216.5,393.1 							"/>
						</g>
						<g>
							<polygon class="st25" points="219.9,402 211.9,397.3 211.9,396.4 225.1,398 225.1,399 							"/>
							<polygon class="st26" points="219.9,401 211.9,396.4 217.1,393.4 225.1,398 							"/>
						</g>
						<g>
							<polygon class="st25" points="228.5,406.9 220.5,402.3 220.5,401.3 233.6,402.9 233.6,403.9 							"/>
							<polygon class="st26" points="228.5,405.9 220.5,401.3 225.6,398.3 233.6,402.9 							"/>
						</g>
						<g>
							<polygon class="st25" points="237,411.8 229,407.2 229,406.3 242.2,407.9 242.2,408.9 							"/>
							<polygon class="st26" points="237,410.9 229,406.3 234.2,403.3 242.2,407.9 							"/>
						</g>
					</g>
					<g>
						<g>
							<polygon class="st25" points="132.4,359.1 119.7,351.7 119.7,350.7 137.5,355.2 137.5,356.1 							"/>
							<polygon class="st26" points="132.4,358.1 119.7,350.7 124.9,347.8 137.5,355.2 							"/>
						</g>
						<g>
							<polygon class="st25" points="140.9,364.1 132.9,359.4 132.9,358.5 146.1,360.1 146.1,361.1 							"/>
							<polygon class="st26" points="140.9,363.1 132.9,358.5 138.1,355.5 146.1,360.1 							"/>
						</g>
						<g>
							<polygon class="st25" points="149.5,369 141.5,364.4 141.5,363.4 154.6,365.1 154.6,366 							"/>
							<polygon class="st26" points="149.5,368 141.5,363.4 146.6,360.4 154.6,365.1 							"/>
						</g>
						<g>
							<polygon class="st25" points="158,374 150,369.3 150,368.4 163.2,370 163.2,371 							"/>
							<polygon class="st26" points="158,373 150,368.4 155.2,365.4 163.2,370 							"/>
						</g>
						<g>
							<polygon class="st25" points="166.6,378.9 158.6,374.3 158.6,373.3 171.7,374.9 171.7,375.9 							"/>
							<polygon class="st26" points="166.6,377.9 158.6,373.3 163.7,370.3 171.7,374.9 							"/>
						</g>
						<g>
							<polygon class="st25" points="175.1,383.8 167.1,379.2 167.1,378.3 180.3,379.9 180.3,380.9 							"/>
							<polygon class="st26" points="175.1,382.9 167.1,378.3 172.3,375.3 180.3,379.9 							"/>
						</g>
						<g>
							<polygon class="st25" points="183.7,388.8 175.7,384.2 175.7,383.2 188.8,384.8 188.8,385.8 							"/>
							<polygon class="st26" points="183.7,387.8 175.7,383.2 180.8,380.2 188.8,384.8 							"/>
						</g>
						<g>
							<polygon class="st25" points="192.2,393.7 184.2,389.1 184.2,388.1 197.4,389.8 197.4,390.8 							"/>
							<polygon class="st26" points="192.2,392.8 184.2,388.1 189.4,385.2 197.4,389.8 							"/>
						</g>
						<g>
							<polygon class="st25" points="200.8,398.7 192.8,394.1 192.8,393.1 206,394.7 206,395.7 							"/>
							<polygon class="st26" points="200.8,397.7 192.8,393.1 198,390.1 206,394.7 							"/>
						</g>
						<g>
							<polygon class="st25" points="209.4,403.6 201.4,399 201.4,398 214.5,399.7 214.5,400.7 							"/>
							<polygon class="st26" points="209.4,402.7 201.4,398 206.5,395.1 214.5,399.7 							"/>
						</g>
						<g>
							<polygon class="st25" points="217.9,408.6 209.9,404 209.9,403 223.1,404.6 223.1,405.6 							"/>
							<polygon class="st26" points="217.9,407.6 209.9,403 215.1,400 223.1,404.6 							"/>
						</g>
						<g>
							<polygon class="st25" points="230.3,415.8 218.5,408.9 218.5,407.9 235.5,411.8 235.5,412.8 							"/>
							<polygon class="st26" points="230.3,414.8 218.5,407.9 223.6,405 235.5,411.8 							"/>
						</g>
					</g>
					<g>
						<g>
							<polygon class="st25" points="122.4,361.2 112.9,355.6 112.9,354.7 126.9,356.8 126.9,357.8 							"/>
							<polygon class="st26" points="122.7,360.4 112.9,354.7 118.1,351.7 127.9,357.4 							"/>
						</g>
						<g>
							<polygon class="st25" points="130.3,365.7 122.3,361.1 122.3,360.1 135.5,361.8 135.5,362.7 							"/>
							<polygon class="st26" points="130.3,364.7 122.3,360.1 127.5,357.1 135.5,361.8 							"/>
						</g>
						<g>
							<polygon class="st25" points="138.9,370.7 130.9,366 130.9,365.1 144,366.7 144,367.7 							"/>
							<polygon class="st26" points="138.9,369.7 130.9,365.1 136,362.1 144,366.7 							"/>
						</g>
						<g>
							<polygon class="st25" points="147.4,375.6 139.4,371 139.4,370 152.6,371.7 152.6,372.6 							"/>
							<polygon class="st26" points="147.4,374.6 139.4,370 144.6,367 152.6,371.7 							"/>
						</g>
						<g>
							<polygon class="st25" points="156,380.6 148,375.9 148,375 161.1,376.6 161.1,377.6 							"/>
							<polygon class="st26" points="156,379.6 148,375 153.2,372 161.1,376.6 							"/>
						</g>
						<g>
							<polygon class="st25" points="164.5,385.5 156.6,380.9 156.6,379.9 169.7,381.5 169.7,382.5 							"/>
							<polygon class="st26" points="164.5,384.5 156.6,379.9 161.7,376.9 169.7,381.5 							"/>
						</g>
						<g>
							<polygon class="st25" points="173.1,390.4 165.1,385.8 165.1,384.9 178.3,386.5 178.3,387.5 							"/>
							<polygon class="st26" points="173.1,389.5 165.1,384.9 170.3,381.9 178.3,386.5 							"/>
						</g>
						<g>
							<polygon class="st25" points="181.7,395.4 173.7,390.8 173.7,389.8 186.8,391.4 186.8,392.4 							"/>
							<polygon class="st26" points="181.7,394.4 173.7,389.8 178.8,386.8 186.8,391.4 							"/>
						</g>
						<g>
							<polygon class="st25" points="190.2,400.3 182.2,395.7 182.2,394.7 195.4,396.4 195.4,397.4 							"/>
							<polygon class="st26" points="190.2,399.4 182.2,394.7 187.4,391.8 195.4,396.4 							"/>
						</g>
						<g>
							<polygon class="st25" points="198.8,405.3 190.8,400.7 190.8,399.7 203.9,401.3 203.9,402.3 							"/>
							<polygon class="st26" points="198.8,404.3 190.8,399.7 195.9,396.7 203.9,401.3 							"/>
						</g>
						<g>
							<polygon class="st25" points="207.3,410.2 199.3,405.6 199.3,404.6 212.5,406.3 212.5,407.3 							"/>
							<polygon class="st26" points="207.3,409.3 199.3,404.6 204.5,401.7 212.5,406.3 							"/>
						</g>
						<g>
							<polygon class="st25" points="215.9,415.2 207.9,410.6 207.9,409.6 221,411.2 221,412.2 							"/>
							<polygon class="st26" points="215.9,414.2 207.9,409.6 213,406.6 221,411.2 							"/>
						</g>
						<g>
							<polygon class="st25" points="223.6,419.6 216.4,415.5 216.4,414.5 228.7,415.7 228.7,416.6 							"/>
							<polygon class="st26" points="223.6,418.6 216.4,414.5 221.6,411.6 228.7,415.7 							"/>
						</g>
					</g>
					<g>
						<g>
							<polygon class="st25" points="119.8,367.4 106.1,359.5 106.1,358.6 124.9,363.4 124.9,364.4 							"/>
							<polygon class="st26" points="119.8,366.4 106.1,358.6 111.3,355.6 124.9,363.4 							"/>
						</g>
						<g>
							<polygon class="st25" points="128.3,372.3 120.3,367.7 120.3,366.8 133.5,368.4 133.5,369.4 							"/>
							<polygon class="st26" points="128.3,371.4 120.3,366.8 125.5,363.8 133.5,368.4 							"/>
						</g>
						<g>
							<polygon class="st25" points="136.9,377.3 128.9,372.7 128.9,371.7 142,373.3 142,374.3 							"/>
							<polygon class="st26" points="136.9,376.3 128.9,371.7 134,368.7 142,373.3 							"/>
						</g>
						<g>
							<polygon class="st25" points="145.4,382.2 137.4,377.6 137.4,376.6 150.6,378.3 150.6,379.3 							"/>
							<polygon class="st26" points="145.4,381.3 137.4,376.6 142.6,373.7 150.6,378.3 							"/>
						</g>
						<g>
							<polygon class="st25" points="154,387.2 146,382.6 146,381.6 159.1,383.2 159.1,384.2 							"/>
							<polygon class="st26" points="154,386.2 146,381.6 151.1,378.6 159.1,383.2 							"/>
						</g>
						<g>
							<polygon class="st25" points="162.5,392.1 154.5,387.5 154.5,386.5 167.7,388.2 167.7,389.2 							"/>
							<polygon class="st26" points="162.5,391.2 154.5,386.5 159.7,383.6 167.7,388.2 							"/>
						</g>
						<g>
							<polygon class="st25" points="171.1,397.1 163.1,392.5 163.1,391.5 176.2,393.1 176.2,394.1 							"/>
							<polygon class="st26" points="171.1,396.1 163.1,391.5 168.3,388.5 176.2,393.1 							"/>
						</g>
						<g>
							<polygon class="st25" points="179.6,402 171.7,397.4 171.7,396.4 184.8,398.1 184.8,399 							"/>
							<polygon class="st26" points="179.6,401 171.7,396.4 176.8,393.5 184.8,398.1 							"/>
						</g>
						<g>
							<polygon class="st25" points="188.2,407 180.2,402.4 180.2,401.4 193.4,403 193.4,404 							"/>
							<polygon class="st26" points="188.2,406 180.2,401.4 185.4,398.4 193.4,403 							"/>
						</g>
						<g>
							<polygon class="st25" points="196.8,411.9 188.8,407.3 188.8,406.3 201.9,408 201.9,408.9 							"/>
							<polygon class="st26" points="196.8,410.9 188.8,406.3 193.9,403.3 201.9,408 							"/>
						</g>
						<g>
							<polygon class="st25" points="205.3,416.9 197.3,412.3 197.3,411.3 210.5,412.9 210.5,413.9 							"/>
							<polygon class="st26" points="205.3,415.9 197.3,411.3 202.5,408.3 210.5,412.9 							"/>
						</g>
						<g>
							<polygon class="st25" points="216.9,423.5 205.9,417.2 205.9,416.2 222,419.5 222,420.5 							"/>
							<polygon class="st26" points="216.9,422.5 205.9,416.2 211,413.2 222,419.5 							"/>
						</g>
					</g>
					<g>
						<g>
							<polygon class="st25" points="109.2,369 99.5,363.4 99.5,362.4 114.3,365.1 114.3,366.1 							"/>
							<polygon class="st26" points="109.2,368.1 99.5,362.4 104.6,359.4 114.3,365.1 							"/>
						</g>
						<g>
							<polygon class="st25" points="117.7,374 109.7,369.4 109.7,368.4 122.9,370 122.9,371 							"/>
							<polygon class="st26" points="117.7,373 109.7,368.4 114.9,365.4 122.9,370 							"/>
						</g>
						<g>
							<polygon class="st25" points="126.3,378.9 118.3,374.3 118.3,373.4 131.4,375 131.4,376 							"/>
							<polygon class="st26" points="126.3,378 118.3,373.4 123.4,370.4 131.4,375 							"/>
						</g>
						<g>
							<polygon class="st25" points="177.5,408.6 126.8,379.3 126.8,378.3 182.6,404.6 182.6,405.6 							"/>
							<polygon class="st26" points="177.5,407.6 126.8,378.3 132,375.3 182.6,404.6 							"/>
						</g>
						<g>
							<polygon class="st25" points="186.2,413.6 178.2,409 178.2,408 191.3,409.6 191.3,410.6 							"/>
							<polygon class="st26" points="186.2,412.6 178.2,408 183.3,405 191.3,409.6 							"/>
						</g>
						<g>
							<polygon class="st25" points="194.7,418.5 186.7,413.9 186.7,412.9 199.9,414.6 199.9,415.5 							"/>
							<polygon class="st26" points="194.7,417.5 186.7,412.9 191.9,409.9 199.9,414.6 							"/>
						</g>
						<g>
							<polygon class="st25" points="203.3,423.5 195.3,418.8 195.3,417.9 208.4,419.5 208.4,420.5 							"/>
							<polygon class="st26" points="203.3,422.5 195.3,417.9 200.4,414.9 208.4,419.5 							"/>
						</g>
						<g>
							<polygon class="st25" points="210.2,427.4 203.8,423.8 203.8,422.8 215.3,423.5 215.3,424.4 							"/>
							<polygon class="st26" points="210.2,426.4 203.8,422.8 209,419.8 215.3,423.5 							"/>
						</g>
					</g>
				</g>
			</g>
			<polygon class="st0" points="304.5,324 304.5,384.5 355.9,402.3 368.7,392.5 			"/>
			<g>
				<g>
					<g>
						<polygon class="st3" points="304.5,324 326.8,311.1 350.3,328.5 328.1,341.4 						"/>
						<polygon class="st1" points="328.1,347.8 350.3,334.9 350.3,328.5 328.1,341.4 						"/>
					</g>
					<g>
						<polygon class="st3" points="328.1,347.8 350.3,334.9 355.9,338.1 333.7,351 						"/>
						<polygon class="st1" points="333.7,357.4 355.9,344.5 355.9,338.1 333.7,351 						"/>
					</g>
					<g>
						<polygon class="st3" points="333.7,357.4 355.9,344.5 361.5,347.7 339.2,360.6 						"/>
						<polygon class="st1" points="339.2,367 361.5,354.1 361.5,347.7 339.2,360.6 						"/>
					</g>
					<g>
						<polygon class="st3" points="339.2,367 361.5,354.2 367,357.4 344.8,370.2 						"/>
						<polygon class="st1" points="344.8,376.7 367,363.8 367,357.4 344.8,370.2 						"/>
					</g>
					<g>
						<polygon class="st3" points="344.8,376.7 367,363.8 372.6,367 350.3,379.9 						"/>
						<polygon class="st1" points="350.3,386.3 372.6,373.4 372.6,367 350.3,379.9 						"/>
					</g>
					<g>
						<polygon class="st3" points="350.3,386.3 372.6,373.4 378.1,376.6 355.9,389.5 						"/>
						<polygon class="st1" points="355.9,395.9 378.1,383 378.1,376.6 355.9,389.5 						"/>
					</g>
					<g>
						<polygon class="st3" points="355.9,395.9 378.1,383.1 383.7,386.3 361.4,399.1 						"/>
						<polygon class="st1" points="361.4,405.6 383.7,392.7 383.7,386.3 361.4,399.1 						"/>
					</g>
				</g>
				<polygon class="st4" points="350.3,386.3 350.3,379.8 344.8,376.6 344.8,370.2 339.2,367 339.2,360.6 333.7,357.4 333.7,351 
					328.1,347.8 328.1,341.4 304.5,324 304.5,324 355.9,402.3 361.4,405.5 361.4,399.1 355.9,395.9 355.9,389.5 				"/>
			</g>
			<g>
				<g>
					<path class="st27" d="M213.7,271.7V299c0,5.6,3.7,11.2,11.1,15.5c14.8,8.6,38.9,8.6,53.7,0c7.4-4.3,11.1-9.9,11.1-15.5v-27.3
						H213.7z"/>
					<g>
						<polygon class="st28" points="250.2,307.2 185.1,269.6 185.1,267.8 315.3,267.8 315.3,269.6 						"/>
						<polygon class="st21" points="250.2,305.4 185.1,267.8 250.2,230.2 315.3,267.8 						"/>
					</g>
				</g>
				<g>
					<g>
						<polygon class="st29" points="286.2,309.1 283.9,309.1 283.9,286 249.7,268.8 250.7,266.8 286.2,284.6 						"/>
					</g>
					<path class="st29" d="M254.9,268.2c0,1.2-1.7,2.3-3.7,2.3c-2.1,0-3.7-1-3.7-2.3c0-1.2,1.7-2.3,3.7-2.3
						C253.2,266,254.9,267,254.9,268.2z"/>
					<path class="st30" d="M287.7,319.5V308c0-1.4-1.2-2.6-2.6-2.6c-1.4,0-2.6,1.2-2.6,2.6v11.5H287.7z"/>
				</g>
			</g>
			<path class="st0" d="M120.4,445.8c0,0,11.5-0.3,25.6-13.3c14.1-13.1,25.4-19.2,25.4-19.2v-4l39.6-23.3l10-6.6l-0.3-61.7
				l-15.2,13.9l-1.1,38.2l-47.8,31.2L120.4,445.8z"/>
			<g>
				<g>
					<path class="st31" d="M140.9,431.9c-2.5,3.6-16.7,16.6-20.9,13.7l0,0c-4.2-2.9,3.2-20.7,5.8-24.3l78.5-111.8
						c2.5-3.6,8-4.2,12.2-1.2l0,0c4.2,2.9,5.5,8.3,3,11.9L140.9,431.9z"/>
					<path class="st32" d="M216.5,308.2c-0.9-0.6-1.8-1-2.7-1.4c1.8,2.9,2,6.4,0.2,9l-78.5,111.8c-2,2.8-10.8,11.1-16.7,13.5
						c-0.1,2.1,0.2,3.7,1.2,4.5c4.2,2.9,18.4-10,20.9-13.7l78.5-111.8C222,316.5,220.7,311.2,216.5,308.2z"/>
					<path class="st33" d="M128.5,417.3l-2.7,3.9c-2.5,3.6-9.9,21.4-5.8,24.3c4.2,2.9,18.4-10,20.9-13.7l2.7-3.9L128.5,417.3z"/>
					<path class="st34" d="M139.1,424.8l-2,2.8c-2.5,3.6-13.8,19.7-17.9,16.8c0.2,0.5,0.5,0.9,0.9,1.2c4.2,2.9,18.4-10,20.9-13.7
						l2.7-3.9L139.1,424.8z"/>
					<polygon class="st21" points="184,373.6 172.2,365.4 166,361 200.2,312.2 218.3,324.9 					"/>
					<polygon class="st35" points="210.5,319.4 176.3,368.1 166,360.9 166,361 172.2,365.4 184,373.6 218.3,324.9 					"/>
					
						<rect x="205" y="311.1" transform="matrix(0.5749 -0.8182 0.8182 0.5749 -175.6404 306.1083)" class="st36" width="3.5" height="22"/>
				</g>
				<path class="st33" d="M214.3,322.1c0,0,8.8,3.4,2.5,13.5c-6.3,10-21.7,26.3-23.2,32.6c-1.5,6.3-7.5,5.6-7.7,1.1
					c-0.2-4.6,5.4-9.5,10.5-16.3c5.1-6.8,20.8-26,14.9-32.9C213.3,321.4,214.3,322.1,214.3,322.1z"/>
			</g>
		</g>
		<g>
			<polygon class="st6" points="360.6,54 291.7,81 321.4,84.5 			"/>
			<polygon class="st3" points="320.9,84.4 325.5,97.3 360.6,54 			"/>
			<polygon class="st1" points="330.8,87.4 325.5,97.3 360.6,54 			"/>
			<polygon class="st6" points="360.6,54 351.3,99.4 330.8,87.4 			"/>
		</g>
		<g>
			<g>
				<g>
					<path class="st4" d="M319.1,97.7l-1.5-1.3c1.7-2,2.6-3.1,2.6-3.1l1.5,1.3C321.7,94.7,320.8,95.8,319.1,97.7z"/>
				</g>
				<g>
					<path class="st4" d="M342,315.5c-1,0-2.1,0-3.1,0l0-2c2.7,0,5.3,0,7.9,0l0.1,2C345.3,315.5,343.6,315.5,342,315.5z
						 M330.9,315.2c-2.3-0.1-4.7-0.3-7.1-0.5l-0.9-0.1l0.2-2l0.9,0.1c2.4,0.2,4.8,0.4,7.1,0.5L330.9,315.2z M355,315.1l-0.2-2
						c2.7-0.2,5.3-0.5,7.9-0.8l0.3,2C360.3,314.6,357.7,314.8,355,315.1z M314.9,313.6c-2.7-0.4-5.3-0.8-7.9-1.3l0.4-2
						c2.5,0.5,5.2,0.9,7.8,1.3L314.9,313.6z M370.9,313l-0.4-2c2.6-0.5,5.2-1.1,7.8-1.7l0.5,1.9C376.2,311.9,373.6,312.5,370.9,313z
						 M299.1,310.6c-2.6-0.6-5.3-1.4-7.8-2.1l0.6-1.9c2.5,0.8,5,1.5,7.6,2.1L299.1,310.6z M386.5,309.1l-0.6-1.9
						c2.5-0.8,5.1-1.7,7.5-2.7l0.7,1.9C391.7,307.3,389.1,308.3,386.5,309.1z M283.7,305.9c-2.5-1-5-2-7.4-3.2l0.9-1.8
						c2.3,1.1,4.8,2.2,7.3,3.1L283.7,305.9z M401.5,303.1l-0.9-1.8c2.4-1.2,4.7-2.5,6.9-3.8l1,1.7
						C406.3,300.6,403.9,301.9,401.5,303.1z M269.2,298.9c-2.4-1.4-4.6-2.9-6.8-4.4l1.2-1.6c2.1,1.5,4.3,3,6.6,4.3L269.2,298.9z
						 M415.3,294.7l-1.2-1.6c2.1-1.6,4.2-3.3,6.1-5l1.3,1.5C419.6,291.4,417.5,293.1,415.3,294.7z M256.2,289.4
						c-2-1.8-3.9-3.8-5.7-5.8l1.5-1.3c1.7,2,3.5,3.8,5.5,5.6L256.2,289.4z M427.3,283.9l-1.5-1.3c1.8-2,3.4-4.1,4.8-6.2l1.7,1.1
						C430.7,279.7,429.1,281.8,427.3,283.9z M245.6,277.1c-1.5-2.2-2.9-4.6-4.1-7l1.8-0.9c1.2,2.3,2.5,4.6,4,6.8L245.6,277.1z
						 M436.4,270.5l-1.8-0.9c1.2-2.4,2.2-4.8,3-7.2l1.9,0.6C438.6,265.5,437.6,268,436.4,270.5z M238.2,262.7
						c-0.9-2.5-1.7-5.1-2.3-7.8l1.9-0.5c0.6,2.6,1.4,5.1,2.2,7.5L238.2,262.7z M441.4,255.1l-2-0.3c0.4-2.4,0.6-4.8,0.6-7.1l0-0.7
						l2,0l0,0.7C442,250.1,441.8,252.6,441.4,255.1z M234.5,247c-0.3-2.6-0.5-5.3-0.6-8.1l2,0c0.1,2.7,0.2,5.3,0.6,7.9L234.5,247z
						 M439.2,239.2c-0.5-2.5-1.2-5.1-2.1-7.5l1.9-0.7c1,2.6,1.7,5.2,2.2,7.8L439.2,239.2z M236.1,231l-2-0.1c0.2-2.6,0.5-5.3,0.9-8
						l2,0.3C236.6,225.7,236.3,228.4,236.1,231z M433.7,224.6c-1.3-2.2-2.8-4.4-4.4-6.5l1.6-1.2c1.7,2.1,3.3,4.4,4.6,6.7
						L433.7,224.6z M238.6,215.4l-1.9-0.5c0.6-2.6,1.4-5.2,2.2-7.8l1.9,0.6C240,210.3,239.2,212.8,238.6,215.4z M243.6,200.4
						l-1.8-0.8c1.1-2.5,2.2-5,3.5-7.3l1.8,0.9C245.8,195.5,244.7,197.9,243.6,200.4z M251.1,186.4l-1.7-1.1c1.4-2.1,2.9-4.4,4.4-6.7
						l1.7,1.1C253.9,182.1,252.4,184.3,251.1,186.4z M260,173.2l-1.6-1.1c1.5-2.2,3.1-4.3,4.7-6.5l1.6,1.2
						C263.1,168.9,261.5,171.1,260,173.2z M269.4,160.3l-1.6-1.2c1.6-2.1,3.2-4.3,4.8-6.4l1.6,1.2
						C272.5,156,270.9,158.1,269.4,160.3z M279,147.5l-1.6-1.2c1.6-2.1,3.3-4.2,4.9-6.3l1.6,1.2C282.2,143.3,280.6,145.4,279,147.5z
						 M288.8,134.9l-1.6-1.2c1.7-2.1,3.3-4.2,5-6.3l1.6,1.2C292.1,130.7,290.5,132.8,288.8,134.9z M298.8,122.4l-1.6-1.3
						c1.7-2.2,3.4-4.2,5-6.2l1.5,1.3C302.2,118.2,300.5,120.2,298.8,122.4z M308.9,110l-1.5-1.3c1.9-2.3,3.6-4.3,5.1-6.2l1.5,1.3
						C312.5,105.7,310.7,107.8,308.9,110z"/>
				</g>
				<g>
					<path class="st4" d="M423.8,212.3c-0.9-0.9-1.9-1.8-2.9-2.6l1.3-1.5c1,0.9,2.1,1.8,3,2.7L423.8,212.3z"/>
				</g>
			</g>
		</g>
		<g>
			<g>
				<path class="st31" d="M114.3,254.8l-1.8-0.8c1-2.3,2.5-5,2.6-5v4.1C114.9,253.5,115,253.1,114.3,254.8z"/>
			</g>
			<g>
				<path class="st31" d="M147.3,320.4c-1.2,0-2.5,0-3.8-0.1l0.1-2c2.8,0.2,5.5,0.1,7.9,0l0.1,2
					C150.3,320.3,148.8,320.4,147.3,320.4z M135.3,319.4c-2.9-0.5-5.5-1.1-8-2l0.6-1.9c2.4,0.8,4.9,1.4,7.7,1.9L135.3,319.4z
					 M159.8,319l-0.5-1.9c2.6-0.6,5.1-1.5,7.4-2.6l0.9,1.8C165.2,317.4,162.6,318.3,159.8,319z M119.8,314c-2.5-1.5-4.7-3.2-6.5-5.2
					l1.5-1.4c1.7,1.8,3.8,3.5,6.1,4.9L119.8,314z M174.7,311.8l-1.2-1.6c2-1.6,3.9-3.5,5.5-5.6l1.6,1.2
					C178.8,308.1,176.8,310.1,174.7,311.8z M108.6,301.8c-1.2-2.4-2-5.1-2.6-7.9l2-0.4c0.5,2.7,1.3,5.2,2.4,7.4L108.6,301.8z
					 M185,299l-1.8-0.9c1.2-2.3,2.2-4.7,3-7.3l1.9,0.6C187.2,294,186.2,296.6,185,299z M105.2,285.7v-0.2c0-2.5,0.2-5.2,0.6-8l2,0.3
					c-0.4,2.7-0.5,5.3-0.5,7.7v0.2L105.2,285.7z M190,283.4l-2-0.4c0.5-2.5,0.8-5.2,1-7.9l2,0.1C190.8,278,190.5,280.8,190,283.4z
					 M109.3,269.9l-1.9-0.5c0.6-2.6,1.4-5.2,2.3-7.9l1.9,0.6C110.6,264.8,109.9,267.4,109.3,269.9z M189.2,267.1
					c0-2.6-0.2-5.3-0.4-8l2-0.2c0.3,2.8,0.4,5.5,0.4,8.2L189.2,267.1z M187.8,251.1c-0.4-2.6-0.9-5.2-1.5-7.9l2-0.4
					c0.6,2.7,1.1,5.4,1.5,8L187.8,251.1z M184.4,235.4c-0.7-2.5-1.5-5.1-2.3-7.7l1.9-0.6c0.8,2.6,1.6,5.2,2.3,7.8L184.4,235.4z
					 M179.6,220c-0.8-2.6-1.6-5.2-2.3-7.8l1.9-0.5c0.7,2.6,1.4,5.2,2.2,7.7L179.6,220z M175.5,204.3c-0.5-2.7-1-5.4-1.4-8l2-0.3
					c0.4,2.6,0.9,5.3,1.4,7.9L175.5,204.3z M173.1,188.2c-0.2-2.7-0.4-5.5-0.5-8.1l2-0.1c0.1,2.6,0.3,5.3,0.5,8L173.1,188.2z
					 M174.6,171.9l-2-0.1c0.1-2.7,0.2-5.5,0.5-8.1l2,0.2C174.8,166.5,174.6,169.2,174.6,171.9z M176.1,156l-2-0.3
					c0.5-2.7,1-5.4,1.7-8l1.9,0.5C177.1,150.7,176.5,153.3,176.1,156z M180.1,140.5l-1.9-0.7c1-2.7,2.1-5.2,3.2-7.5l1.8,0.9
					C182.1,135.5,181,137.9,180.1,140.5z M187.3,126.4l-1.6-1.2c1.6-2.3,3.5-4.4,5.4-6.3l1.4,1.4
					C190.6,122.1,188.9,124.2,187.3,126.4z M236.4,116.8c-2.5-1.2-5-2.2-7.4-3l0.6-1.9c2.5,0.8,5,1.9,7.6,3.1L236.4,116.8z
					 M198.6,115.6l-1-1.7c2.4-1.4,5-2.6,7.6-3.3l0.6,1.9C203.3,113.2,200.9,114.3,198.6,115.6z M221.3,111.8
					c-2.7-0.5-5.3-0.6-7.9-0.5l-0.1-2c2.7-0.1,5.4,0.1,8.3,0.6L221.3,111.8z"/>
			</g>
			<g>
				<path class="st31" d="M246.9,122.9c-1.1-0.7-2.2-1.5-3.3-2.1l1-1.7c1.1,0.7,2.3,1.4,3.4,2.2L246.9,122.9z"/>
			</g>
		</g>
		<g>
			<path class="st11" d="M423.4,341.5l-5.5,3l-3.9-2.1l-37.1,20.1c-5.3,2.9-5.3,7.5,0,10.4l0.5,0.3c5.3,2.9,13.9,2.9,19.2,0
				l26.9-14.6V341.5z"/>
			<g>
				<g>
					<g>
						<g>
							<g>
								<polygon class="st37" points="429.6,351.6 446.5,341.8 446.5,337.3 416.2,343.9 								"/>
							</g>
							<g>
								<polygon class="st38" points="429.6,347.1 446.5,337.3 433.1,329.5 416.2,339.3 								"/>
								<polygon class="st37" points="440.5,338.9 443,337.4 439.3,335.3 436.7,336.8 								"/>
								<polygon class="st39" points="439.3,335.7 437,336.9 436.7,336.8 439.3,335.3 443,337.4 442.7,337.6 								"/>
								<polygon class="st37" points="434,335.2 436.5,333.7 432.8,331.5 430.2,333 								"/>
								<polygon class="st39" points="432.8,331.9 430.5,333.2 430.2,333 432.8,331.5 436.5,333.7 436.2,333.9 								"/>
							</g>
						</g>
						<g>
							<path class="st12" d="M380.7,358.9l3.2,3c0.2-0.1,0.4-0.2,0.6-0.3l53.3-17.5v8l-34.9,20.1c-5,2.9-13,2.9-18,0l-0.4-0.3
								c-2.6-1.5-3.8-3.4-3.7-5.4l0,0V358.9z"/>
							<path class="st15" d="M384.4,353.5l34.9-20.1l18.5,10.7l-34.9,20.1c-5,2.9-13,2.9-18,0l-0.4-0.3
								C379.5,361,379.5,356.3,384.4,353.5z"/>
						</g>
					</g>
					<path class="st40" d="M387.7,361.6c3,1.8,8,1.8,11,0c3-1.8,3-4.6,0-6.4c-3-1.8-8-1.8-11,0C384.6,356.9,384.7,359.8,387.7,361.6
						z"/>
				</g>
			</g>
		</g>
		<g>
			<path class="st41" d="M120.8,113.8c0,0-0.1,7.2,3.6,8.7c3-0.6-0.4-8.3-0.4-8.3L120.8,113.8z"/>
			<g>
				<g>
					<path class="st17" d="M166.6,171.5c0.5-0.3,0.9-0.8,1.2-1.3l-2.5,1.4C166,171.6,166.6,171.6,166.6,171.5z"/>
					<path class="st17" d="M176.1,239.7C176.1,239.7,176.1,239.7,176.1,239.7c-0.1-0.2-0.1-0.3-0.2-0.5c-1.1-1.6-5.6-5.1-6.9-6.1
						c0.1-0.1,0.1-0.2,0.1-0.2s0.9-24.2-1.6-34.7c-0.9-3.8-4.4-7.9-8.4-11.5l-0.3-7.1l0.6-4.5L126,193.7c6.2,2.8,13.5,6.1,13.5,6.1
						s4.6,45.5,4.8,45.7c-0.1,0.1-0.2,0.2-0.2,0.4c-0.1,0.6-0.1,1-0.1,1.4c0,0,0,0.1,0,0.1c0,0.2,0,0.3,0.1,0.4c0,0,0,0,0,0
						c0,0.1,0.1,0.2,0.2,0.4c0,0,0,0,0.1,0.1c0.1,0.1,0.2,0.2,0.4,0.3c0.9,0.5,1.9,1.2,6.7,3.7c0.3,0.2,0.6,0.3,0.8,0.4
						c0.1,0,0.2,0.1,0.3,0.1c0.2,0.1,0.4,0.1,0.5,0.2c0.1,0,0.2,0.1,0.3,0.1c0.2,0,0.3,0.1,0.5,0.1c0.1,0,0.2,0,0.3,0.1
						c0.1,0,0.3,0.1,0.4,0.1c0.1,0,0.2,0,0.3,0c0.1,0,0.2,0,0.4,0c0.1,0,0.2,0,0.3,0c0.1,0,0.2,0,0.3,0c0.1,0,0.2,0,0.2,0
						c0.1,0,0.2,0,0.3,0c0.1,0,0.2,0,0.2,0c0.1,0,0.1,0,0.2-0.1c0.1,0,0.2,0,0.2-0.1c0,0,0.1,0,0.1-0.1c0.1,0,0.2-0.1,0.2-0.1
						c0.6-0.4,0.9-1,0.7-1.6c0,0,0,0,0,0c-0.1-0.2-0.1-0.3-0.2-0.5c-1-1.5-5.1-4.7-6.6-5.9c0.1-0.1,0.2-0.2,0.2-0.2s0-23.2-1.5-33.9
						c-0.5-4,3.4-0.3,0.4-4c4.7,1.9,7.9-7.6,7.9-7.6l4,35.5c0,0,0.1,0,0.2,0.1c0,0.2,0,0.4,0,0.6c0,0,0,0.1,0,0.1
						c0,0.2,0,0.3,0.1,0.4c0,0,0,0,0,0c0,0.1,0.1,0.2,0.2,0.4c0,0,0,0.1,0.1,0.1c0.1,0.1,0.2,0.2,0.4,0.3c0.9,0.5,1.9,1.2,6.7,3.7
						c0.3,0.2,0.6,0.3,0.8,0.4c0.1,0,0.2,0.1,0.3,0.1c0.2,0.1,0.4,0.1,0.5,0.2c0.1,0,0.2,0.1,0.3,0.1c0.2,0,0.3,0.1,0.5,0.1
						c0.1,0,0.2,0,0.3,0.1c0.1,0,0.3,0.1,0.4,0.1c0.1,0,0.2,0,0.3,0c0.1,0,0.2,0,0.4,0c0.1,0,0.2,0,0.3,0c0.1,0,0.2,0,0.3,0
						c0.1,0,0.2,0,0.2,0c0.1,0,0.2,0,0.3,0c0.1,0,0.2,0,0.2,0c0.1,0,0.1,0,0.2-0.1c0.1,0,0.2,0,0.2-0.1c0,0,0.1,0,0.1-0.1
						c0.1,0,0.2-0.1,0.2-0.1C176,240.9,176.3,240.3,176.1,239.7z"/>
					<path class="st42" d="M168.3,180.5c0,0-5.7,0.5-6.9,5.2c-1,4-2.6,1.6-2.3,2.3c0.3,0.7,3.2,6.4,6,3.9s6.8-5.1,5.2-10.4
						C169.2,180.6,168.3,180.5,168.3,180.5z"/>
					<path class="st20" d="M152.8,190.4c0,0-5.7,0.5-6.9,5.2c-1,4-1,4.2-0.7,5c0.3,0.7,1.6,3.8,4.4,1.3s8.3-3.3,6.8-8.5
						C155.2,192.3,152.8,190.4,152.8,190.4z"/>
					<g>
						<linearGradient id="SVGID_4_" gradientUnits="userSpaceOnUse" x1="139.368" y1="141.1725" x2="170.8804" y2="141.1725">
							<stop  offset="0" style="stop-color:#FFB870"/>
							<stop  offset="1" style="stop-color:#FFE2C4"/>
						</linearGradient>
						<path class="st43" d="M142.9,122.6c0,0-0.1-1-2.8,5.1c-2.7,6.1,3.8,25.5,5.4,27.6c1.6,2.1,21.1,8.1,25.4,1.5
							c-2.7-1.4-0.1-3.4-0.6-6.5c-8,2.8-19.5-2-22-4C144.2,142.9,150.3,131,142.9,122.6z"/>
						<g>
							<g>
								<g>
									<path class="st15" d="M173.3,221.4c0,0,6.7,4.5,8,6.3c1.3,1.8-1.5,3.8-6.3,1.3c-4.8-2.5-5.8-3.2-6.7-3.7
										c-0.9-0.5-0.9-3.1,0-4.6C169,219.5,173.3,221.4,173.3,221.4z"/>
									<path class="st19" d="M168.3,224.5c0.9,0.5,1.9,1.2,6.7,3.7c3.6,1.9,6,1.2,6.5,0c0.5,1.7-2.1,3.1-6.5,0.8
										c-4.8-2.5-5.8-3.2-6.7-3.7c-0.7-0.4-0.8-0.9-0.7-1.8C167.7,223.9,167.9,224.2,168.3,224.5z"/>
								</g>
								<path class="st44" d="M123.1,164.2c0,0,0.2,13.4,12.1,16.4c11.9,2.9,27.4,7.5,27.4,7.5l5.9,34c0,0,2,2,3.6,1.4
									c1.4-0.6,1.1-2,1.1-2s0.8-25.2-1.4-35.7c-1.6-7.8-29.2-19.5-29.2-19.5L123.1,164.2z"/>
								<path class="st20" d="M170.3,181.6c-6.4-9-21.4-17.6-21.4-17.6l-25.8,0.3c0,0,0.2,13.4,12.1,16.4c10,2.5,22.5,8.7,25.5,10.1
									C160.8,185.1,165,179.2,170.3,181.6z"/>
								<g>
									<g>
										<path class="st15" d="M155.9,233.1c0,0,5.9,4.5,7.2,6.3c1.3,1.8-1.5,3.8-6.3,1.3c-4.8-2.5-5.8-3.2-6.7-3.7
											c-0.9-0.5-0.9-3.3,0.1-5.1C150.9,230.7,155.9,233.1,155.9,233.1z"/>
										<path class="st19" d="M150.1,236.2c0.9,0.5,1.9,1.2,6.7,3.7c3.6,1.9,6,1.2,6.5,0c0.5,1.7-2.1,3.1-6.5,0.8
											c-4.8-2.5-5.8-3.2-6.7-3.7c-0.7-0.4-0.8-0.9-0.7-1.8C149.5,235.6,149.7,235.9,150.1,236.2z"/>
									</g>
									<path class="st44" d="M111.4,172.2c0,0-1.1,13.4,10.4,17.5c11.5,4.1,25.7,9.3,25.7,9.3l2.8,33.7c0,0,1,1.5,3.3,1.5
										c2.4,0,2.3-1.2,2.3-1.2s2.5-24.4,1-35.1c-1.5-10.7-16.7-23.2-16.7-23.2L111.4,172.2z"/>
									<path class="st21" d="M156.3,193.3c-4.4-9.3-16.2-18.5-16.2-18.5l-28.8-2.6c0,0-1.1,13.4,10.4,17.5
										c10.1,3.6,21.8,10.8,24.1,12.2C147.4,196.8,149.8,191.7,156.3,193.3z"/>
								</g>
							</g>
							<path class="st45" d="M150.6,165.1c0,0,1.3-40.1-11-44.8c-12.2-4.7-23.5,6.5-28.3,17.3c-4.8,10.8-3.5,29.6,0,36.6
								C128.2,185.7,151.1,170.6,150.6,165.1z"/>
							<path class="st46" d="M111.4,137.5c4.8-10.8,16-22,28.3-17.3c0.4,0.2,0.8,0.4,1.2,0.6c-9,1.1-16.7,9.8-20.4,18.3
								c-4.8,10.8-3.5,29.6,0,36.6c1.7,1.2,3.4,2,5.2,2.7c-4.8,0-9.7-1.2-14.2-4.2C107.8,167.1,106.6,148.3,111.4,137.5z"/>
							<g>
								<path class="st44" d="M143.1,102.3c0,0,3.1,4.9,0.3,15.5c-2.2,8.6-2.6,13.4-6.1,13.7c-3.6,0.4-14.3-2.3-13.2-11.2
									c-1.1-0.2-3.3-4.3-1.5-7.6c1.7-3.3,2.9,0.3,2.9,0.3s-0.1-7.1,5-9.7C135.5,100.8,143.1,102.3,143.1,102.3z"/>
								<path class="st41" d="M131.3,110.9c0-0.4,3.8,5,10,3.3c-2.1-0.6-2.6-2.1-2.6-2.1s2.1,2.7,5.6,1.8c-1.5-0.6-2.2-1.3-2.2-1.3
									s2.3,1.2,4.6,0.3c-1.4-0.6-1.2-1.5-1.2-1.5s1.2,1.2,3.7-0.9c-1-0.1-0.9-4.7-4.5-7.9c-3.6-3.3-6.5-4-11.2-3.2
									c1.2-1.2,2.4-1.9,4.1-1.6c-1.9-1.1-5.9,0.8-7.1,2.6c-3.7-1.4-10.7,1-8.4,14.5c0-0.3,0.4-2.5,1.7-3c1.3-0.4,2.4,2.2,2.1,2.8
									c-0.3,0.7-0.4,4.5-0.4,4.5l1.7,0.9c0,0-0.5-3.3,0.7-4.4C128.9,114.8,131,116,131.3,110.9z"/>
							</g>
						</g>
						<g>
							<g>
								<polygon class="st6" points="172.2,141.1 165,150.9 141.5,145.4 142.9,175.7 164.2,175.5 171.2,166.9 								"/>
								<polygon class="st5" points="172.2,137 165,150.9 164.2,175.5 171.2,166.9 								"/>
							</g>
							<path class="st44" d="M171.8,152.3c0,0-1.6,3.3-2.6,3.7c-1,0.4-0.2,5.9,2.8,4.1C175.1,158.3,173.7,152.4,171.8,152.3z"/>
						</g>
						<path class="st44" d="M151.7,161.8c-1.7-0.1-3.6,0.3-6.6,0.3c-3,0.1-2.9-1.6-3-4.1c-0.9,0.7-1.5,2.6-3,3.7
							c-1.5,1.1-2.3,0-2.3,0l-0.3,0.2c-10.8-1.9-18.5-4.6-20.2-7.2c-1.8-2.6,3.1-10.6,3.5-17.8c0,0,1-9-4.8-5.8
							c-5.8,3.3-7.7,26.5-7.7,29.1c0,2.6,19.5,6.3,29.6,7.2c1.7,1,3.8,1.9,5.9,2C151.4,169.5,153.4,161.9,151.7,161.8z"/>
						<path class="st47" d="M121.2,136.3c0,0-0.5-8.3-6.3-5c-3,1.7-6,10.6-8.3,16.3c3.4,2.6,7,3.9,10.9,4.6
							C118.8,150,121.9,143.9,121.2,136.3z"/>
					</g>
				</g>
				<g>
					<path class="st47" d="M147,105.8c0,0-0.4,5.9-25.2,8.3c-0.8-0.9-1.3-2.2-1.5-3.8c-0.5-3.2,0.1-7,0.9-8.5
						c1.2-2.3,0.9-5.3-0.5-6.8c-1.4-1.4-1.1-4.5,3.7-2.3C129.4,95,141.8,93.3,147,105.8z"/>
					<path class="st6" d="M120.4,110.5c0,0,4.6,1.3,13.9-0.4c9.3-1.7,11.6-4.9,11.7-6.5c2.7,0.1,2.3,3.8,1.9,4.5
						c-1.3,2.5-15.5,8.6-26,6.6C119.8,113.6,119.8,111.4,120.4,110.5z"/>
					<circle class="st6" cx="119.7" cy="92.3" r="3.5"/>
				</g>
			</g>
		</g>
	</g>
</g>
</svg>
