<?xml version="1.0" encoding="utf-8"?>
<!-- Generator: Adobe Illustrator 22.0.0, SVG Export Plug-In . SVG Version: 6.00 Build 0)  -->
<svg version="1.1" id="Camada_1" xmlns="http://www.w3.org/2000/svg" xmlns:xlink="http://www.w3.org/1999/xlink" x="0px" y="0px"
	 viewBox="0 0 310.1 364.8" style="enable-background:new 0 0 310.1 364.8;" xml:space="preserve">
<style type="text/css">
	.st0{opacity:0.32;}
	.st1{fill:#D6EAF2;}
	.st2{fill:#83E4FE;}
	.st3{opacity:0.53;}
	.st4{opacity:0.37;}
	.st5{fill:#A4D1FD;}
	.st6{opacity:0.47;}
	.st7{fill:#35AFE5;}
	.st8{fill:#55C3FE;}
	.st9{fill:#97DFFF;}
	.st10{fill:#F9FBFC;}
	.st11{fill:#283E77;}
	.st12{fill:#FFFFFF;}
	.st13{fill:#D4E2FE;}
	.st14{fill:url(#SVGID_1_);}
	.st15{fill:#1890C6;}
	.st16{opacity:0.32;fill:#D6EAF2;}
	.st17{fill:#E89C71;}
	.st18{fill:#EA4266;}
	.st19{fill:#FE7386;}
	.st20{fill:#E37B46;}
	.st21{fill:#743B3A;}
	.st22{fill:#E5B597;}
	.st23{fill:#5867AC;}
	.st24{fill:url(#SVGID_2_);}
	.st25{fill:url(#SVGID_3_);}
	.st26{opacity:0.43;fill:url(#SVGID_4_);}
	.st27{fill:url(#SVGID_5_);}
	.st28{opacity:0.57;}
</style>
<g>
	<g>
		<g class="st0">
			<g>
				<path class="st1" d="M127.2,283.4c-2.7,1.5-2.7,4,0,5.5l88.2,51.3c2.6,1.5,6.9,1.5,9.6,0l20.7-9.7c2.7-1.5,2.7-4,0-5.5
					l-88.2-51.3c-2.6-1.5-6.9-1.5-9.6,0L127.2,283.4z"/>
			</g>
		</g>
		<g>
			<g>
				<path class="st2" d="M102.9,69.1l0,2.2c0,1.3,1.4,2.1,2.5,1.5l10.4-6c0.5-0.3,0.8-0.9,0.8-1.5l0-2.2c0-1.3-1.4-2.1-2.5-1.5
					l-10.4,6C103.2,68,102.9,68.5,102.9,69.1z"/>
			</g>
			<g>
				<path class="st2" d="M70.1,99.1l0,2.2c0,1.3,1.4,2.1,2.5,1.5l43.3-25c0.5-0.3,0.8-0.9,0.8-1.5l0-2.2c0-1.3-1.4-2.1-2.5-1.5
					l-43.3,25C70.4,97.9,70.1,98.5,70.1,99.1z"/>
			</g>
			<g class="st3">
				<path class="st2" d="M88,110.7l0,2.2c0,1.3,1.4,2.1,2.5,1.5L116,99.7c0.5-0.3,0.8-0.9,0.8-1.5l0-2.2c0-1.3-1.4-2.1-2.5-1.5
					l-25.4,14.7C88.3,109.5,88,110.1,88,110.7z"/>
			</g>
			<g>
				<path class="st2" d="M76.8,106.2l0,2.2c0,1.3,1.4,2.1,2.5,1.5l36.6-21.1c0.5-0.3,0.8-0.9,0.8-1.5l0-2.2c0-1.3-1.4-2.1-2.5-1.5
					l-36.6,21.1C77.1,105,76.8,105.6,76.8,106.2z"/>
			</g>
		</g>
		<g>
			<g class="st4">
				<g>
					<path class="st5" d="M303.2,102.5c0.5,0.3,0.9,0.9,0.9,1.5l0,15c0,0.5-0.4,0.8-0.9,0.5l-19-11c-0.5-0.3-0.9-0.9-0.9-1.5l0-15
						c0-0.5,0.4-0.8,0.9-0.5L303.2,102.5z"/>
				</g>
			</g>
			<g class="st6">
				<g>
					<path class="st7" d="M310.1,129.2c0.5,0.3,0.9,0.9,0.9,1.5l0,15c0,0.5-0.4,0.8-0.9,0.5l-19-11c-0.5-0.3-0.9-0.9-0.9-1.5l0-15
						c0-0.5,0.4-0.8,0.9-0.5L310.1,129.2z"/>
				</g>
			</g>
		</g>
		<g>
			<g class="st4">
				<g>
					<path class="st5" d="M117,143.3c0.3,0.2,0.6,0.6,0.6,1l0,9.7c0,0.4-0.3,0.5-0.6,0.3l-12.3-7.1c-0.3-0.2-0.6-0.6-0.6-1l0-9.7
						c0-0.4,0.3-0.5,0.6-0.3L117,143.3z"/>
				</g>
			</g>
			<g class="st6">
				<g>
					<path class="st7" d="M121.5,160.6c0.3,0.2,0.6,0.6,0.6,1l0,9.7c0,0.4-0.3,0.5-0.6,0.3l-12.3-7.1c-0.3-0.2-0.6-0.6-0.6-1l0-9.7
						c0-0.4,0.3-0.5,0.6-0.3L121.5,160.6z"/>
				</g>
			</g>
		</g>
		<g>
			<g>
				<path class="st8" d="M246.8,61c0.1,0.1,0.1,0.1,0.2,0.2c0.6,0.5,1.2,1,1.7,1.5c0.1,0.1,0.1,0.1,0.2,0.2c0.6,0.5,1.1,1.1,1.7,1.7
					c0,0,0.1,0.1,0.1,0.1c0.6,0.6,1.2,1.3,1.7,1.9c0,0,0,0,0,0c0.6,0.7,1.1,1.4,1.7,2.1c0,0,0,0,0,0c0.5,0.7,1,1.3,1.4,2
					c0.3,0.4,0.6,0.9,0.8,1.3c0.2,0.4,0.5,0.7,0.7,1.1c0.1,0.2,0.2,0.4,0.3,0.5c0.4,0.6,0.7,1.3,1,1.9c0,0.1,0.1,0.1,0.1,0.2
					c0.4,0.8,0.8,1.6,1.1,2.4c0,0,0,0.1,0.1,0.1c2.2,5,3.4,10.2,3.4,15l9.1-5.3c0-4.3-1-8.8-2.7-13.3l0,0c-0.1-0.3-0.3-0.7-0.4-1
					c-0.1-0.2-0.2-0.5-0.3-0.7c0,0,0-0.1-0.1-0.1c0,0,0-0.1-0.1-0.1c-0.1-0.3-0.3-0.7-0.4-1c-0.2-0.4-0.3-0.7-0.5-1.1
					c0-0.1-0.1-0.1-0.1-0.2c0-0.1-0.1-0.1-0.1-0.2c-0.1-0.3-0.3-0.6-0.4-0.9c-0.2-0.4-0.4-0.7-0.6-1c-0.1-0.2-0.2-0.4-0.3-0.5
					c0-0.1-0.1-0.1-0.1-0.2c-0.2-0.3-0.4-0.6-0.6-0.9c-0.3-0.4-0.5-0.9-0.8-1.3c0-0.1-0.1-0.1-0.1-0.2c-0.4-0.6-0.8-1.2-1.3-1.8
					c0,0,0,0,0,0c0,0,0,0,0,0c-0.3-0.4-0.6-0.8-0.9-1.2c-0.2-0.3-0.5-0.6-0.8-0.9c0,0,0,0,0,0c0,0,0,0,0,0c-0.3-0.3-0.5-0.6-0.8-0.9
					c-0.3-0.3-0.5-0.6-0.8-0.9c0,0-0.1-0.1-0.1-0.1c0-0.1-0.1-0.1-0.1-0.1c-0.2-0.2-0.4-0.4-0.6-0.6c-0.3-0.3-0.6-0.6-0.9-0.8
					c-0.1-0.1-0.2-0.2-0.3-0.3c-0.1-0.1-0.1-0.1-0.2-0.2c-0.1-0.1-0.3-0.3-0.4-0.4c-0.3-0.3-0.6-0.5-0.9-0.8
					c-0.1-0.1-0.3-0.2-0.4-0.3c-0.1-0.1-0.1-0.1-0.2-0.2c-0.1-0.1-0.2-0.2-0.3-0.2c-0.3-0.2-0.6-0.5-0.9-0.7
					c-0.2-0.2-0.4-0.3-0.7-0.5c0,0-0.1-0.1-0.1-0.1c0,0-0.1-0.1-0.1-0.1c-0.3-0.2-0.6-0.4-0.9-0.6c-0.3-0.2-0.6-0.4-0.9-0.5
					c-0.1,0-0.1-0.1-0.2-0.1L165,2.8c-0.2-0.1-0.4-0.2-0.6-0.4c-0.3-0.2-0.6-0.3-0.8-0.4c-0.2-0.1-0.4-0.2-0.5-0.3
					c0,0-0.1,0-0.1-0.1c-0.1,0-0.1-0.1-0.2-0.1c-0.3-0.1-0.5-0.2-0.8-0.3c-0.3-0.1-0.5-0.2-0.8-0.3c0,0-0.1,0-0.1,0c0,0-0.1,0-0.1,0
					c-0.2-0.1-0.4-0.1-0.6-0.2c-0.3-0.1-0.6-0.2-0.8-0.2c-0.1,0-0.3-0.1-0.4-0.1c-0.1,0-0.1,0-0.2,0c-0.1,0-0.2,0-0.3-0.1
					c-0.3-0.1-0.6-0.1-0.9-0.1c-0.2,0-0.4,0-0.5-0.1c-0.1,0-0.1,0-0.2,0c-0.1,0-0.1,0-0.2,0c-0.3,0-0.6,0-1,0c-0.1,0-0.3,0-0.4,0
					c-0.1,0-0.2,0-0.3,0c-0.1,0-0.2,0-0.3,0c-0.4,0-0.8,0.1-1.2,0.2c0,0,0,0,0,0c-0.1,0-0.2,0-0.2,0.1c-0.4,0.1-0.8,0.2-1.2,0.3
					c0,0-0.1,0-0.1,0.1c-0.1,0-0.1,0.1-0.2,0.1c-0.5,0.2-0.9,0.4-1.3,0.6l-9.1,5.3c0.4-0.2,0.9-0.5,1.3-0.6c0.1,0,0.1-0.1,0.2-0.1
					c0.4-0.2,0.8-0.3,1.3-0.4c0.1,0,0.2-0.1,0.2-0.1c0.5-0.1,1-0.2,1.5-0.2c0.1,0,0.2,0,0.3,0c0.5,0,1,0,1.5,0c0.1,0,0.1,0,0.2,0
					c0.6,0.1,1.1,0.1,1.7,0.3c0.1,0,0.1,0,0.2,0c0.6,0.1,1.2,0.3,1.8,0.5c0,0,0.1,0,0.1,0c0.6,0.2,1.3,0.5,1.9,0.8
					c0,0,0.1,0,0.1,0.1c0.7,0.3,1.3,0.7,2,1l86.9,50.2c0.7,0.4,1.4,0.8,2,1.3c0,0,0.1,0.1,0.1,0.1C245.5,60.1,246.1,60.5,246.8,61z"
					/>
				<path class="st7" d="M272.1,87.2c0-0.3,0-0.7,0-1c0-0.3,0-0.7-0.1-1c0-0.3-0.1-0.7-0.1-1c0-0.3-0.1-0.7-0.1-1
					c-0.1-0.3-0.1-0.7-0.2-1c-0.1-0.4-0.1-0.7-0.2-1.1c-0.1-0.4-0.2-0.7-0.2-1.1c-0.1-0.4-0.2-0.7-0.3-1.1c-0.1-0.4-0.2-0.7-0.3-1.1
					c-0.1-0.4-0.2-0.7-0.3-1.1c-0.1-0.3-0.2-0.7-0.4-1c-0.1-0.3-0.2-0.7-0.4-1l-9.1,5.3c0.1,0.3,0.3,0.7,0.4,1
					c0.1,0.3,0.2,0.7,0.4,1c0.1,0.4,0.2,0.7,0.3,1.1c0.1,0.4,0.2,0.7,0.3,1.1c0.1,0.4,0.2,0.7,0.3,1.1c0.1,0.4,0.2,0.7,0.2,1.1
					c0.1,0.4,0.1,0.7,0.2,1.1c0.1,0.3,0.1,0.7,0.2,1c0.1,0.3,0.1,0.7,0.1,1c0,0.3,0.1,0.7,0.1,1c0,0.3,0.1,0.7,0.1,1
					c0,0.3,0,0.7,0,1c0,0.3,0,0.6,0,0.9l-0.6,208.4c0,0.8,0,1.5-0.1,2.2c0,0.1,0,0.1,0,0.2c-0.1,0.7-0.2,1.3-0.3,1.9
					c0,0.1,0,0.2,0,0.2c-0.1,0.6-0.3,1.2-0.4,1.7c0,0.1-0.1,0.2-0.1,0.3c-0.2,0.5-0.4,1-0.6,1.5c0,0.1,0,0.1-0.1,0.2
					c-0.2,0.5-0.5,1-0.8,1.5c0,0.1-0.1,0.1-0.1,0.2c-0.2,0.4-0.5,0.7-0.8,1c-0.1,0.1-0.2,0.2-0.3,0.3c-0.2,0.3-0.5,0.5-0.8,0.7
					c-0.1,0.1-0.2,0.2-0.3,0.3c-0.4,0.3-0.8,0.6-1.2,0.8l9.1-5.3c0.4-0.2,0.8-0.5,1.2-0.8c0.1-0.1,0.2-0.2,0.3-0.3
					c0.3-0.2,0.5-0.5,0.8-0.7c0.1-0.1,0.2-0.2,0.3-0.3c0.3-0.3,0.5-0.7,0.8-1c0-0.1,0.1-0.1,0.1-0.2c0,0,0,0,0,0
					c0.3-0.4,0.5-0.9,0.8-1.4c0,0,0,0,0,0c0-0.1,0-0.1,0.1-0.2c0.1-0.3,0.3-0.6,0.4-1c0.1-0.2,0.1-0.3,0.2-0.5
					c0-0.1,0.1-0.2,0.1-0.3c0-0.1,0.1-0.2,0.1-0.3c0.1-0.3,0.2-0.7,0.3-1c0-0.1,0.1-0.3,0.1-0.4c0-0.1,0-0.2,0-0.2
					c0-0.1,0.1-0.2,0.1-0.4c0.1-0.3,0.1-0.6,0.1-1c0-0.2,0-0.4,0.1-0.6c0-0.1,0-0.1,0-0.2c0-0.1,0-0.2,0-0.2c0-0.3,0-0.6,0.1-1
					c0-0.3,0-0.6,0-1c0,0,0,0,0-0.1l0.6-208.4C272.1,87.8,272.1,87.5,272.1,87.2z"/>
				<g>
					<g>
						<path class="st9" d="M242.8,58.2c11.2,6.5,20.3,22.2,20.3,35.1l-0.6,208.4c0,12.9-9.2,18.1-20.4,11.6l-86.9-50.2
							c-11.2-6.5-20.3-22.2-20.3-35.1l0.6-208.4c0-12.9,9.2-18.1,20.4-11.6L242.8,58.2z"/>
					</g>
				</g>
				<g>
					<g>
						<path class="st8" d="M210.7,59.8c1.4,0.8,2.5,2.7,2.5,4.3c0,1.6-1.1,2.2-2.5,1.4l-22.4-12.9c-1.4-0.8-2.5-2.7-2.5-4.3
							c0-1.6,1.1-2.2,2.5-1.4L210.7,59.8z"/>
					</g>
					<g>
						
							<ellipse transform="matrix(0.8646 -0.5025 0.5025 0.8646 -106.713 135.9577)" class="st7" cx="198.9" cy="266" rx="5.4" ry="9.4"/>
					</g>
					<g>
						<path class="st10" d="M254.1,103.2c1.1,0.7,2,2.2,2,3.5l-0.5,174.2c0,1.3-0.9,1.8-2.1,1.2l-109.3-63.1c-1.1-0.7-2-2.2-2-3.5
							l0.5-174.2c0-1.3,0.9-1.8,2.1-1.2L254.1,103.2z"/>
					</g>
				</g>
				<path class="st10" d="M267.8,163.6L267.8,163.6c-0.7,0-1.3-0.6-1.3-1.3v-38.7c0-0.7,0.6-1.3,1.3-1.3l0,0c0.7,0,1.3,0.6,1.3,1.3
					v38.7C269.1,163,268.5,163.6,267.8,163.6z"/>
				<path class="st10" d="M267.8,211.8L267.8,211.8c-0.7,0-1.3-0.6-1.3-1.3v-38.7c0-0.7,0.6-1.3,1.3-1.3l0,0c0.7,0,1.3,0.6,1.3,1.3
					v38.7C269.1,211.2,268.5,211.8,267.8,211.8z"/>
				<path class="st11" d="M267.8,271L267.8,271c-0.7,0-1.3-0.6-1.3-1.3v-20.1c0-0.7,0.6-1.3,1.3-1.3l0,0c0.7,0,1.3,0.6,1.3,1.3v20.1
					C269.1,270.4,268.5,271,267.8,271z"/>
			</g>
			<g>
				<path class="st12" d="M198.2,115.4c5.6,3.2,10.1,11,10.2,17.5c0,0.1,0,0.1,0,0.2c-0.2,0.1-4.7,1.9-10.4-1.3
					c-0.1,0-0.1-0.1-0.2-0.1c-4.4-2.6-8.1-7.6-9.4-9.6c-0.3-0.5-0.5-0.8-0.5-0.8C188,114.7,192.5,112.1,198.2,115.4z"/>
			</g>
			<g>
				<path class="st13" d="M244.2,171.6c1.3,0.7,2.3,2.6,2.3,4l0,9.8c0,1.5-1.1,2.1-2.3,1.3l-89.8-51.9c-1.3-0.7-2.3-2.6-2.3-4l0-9.8
					c0-1.5,1.1-2.1,2.3-1.3L244.2,171.6z"/>
			</g>
			<linearGradient id="SVGID_1_" gradientUnits="userSpaceOnUse" x1="183.5204" y1="81.9879" x2="212.5643" y2="141.3665">
				<stop  offset="0" style="stop-color:#9078FB"/>
				<stop  offset="0.418" style="stop-color:#B074DE"/>
				<stop  offset="0.94" style="stop-color:#DE6FB5"/>
			</linearGradient>
			<path class="st14" d="M213.5,113.1c0.5,1.7,0.9,3.5,1.1,5.2c0.1,1,0.2,2,0.2,3c0,0.3,0,0.6,0,0.9c0,0,0,0.1,0,0.1
				c0,0.3,0,0.6-0.1,0.8c0,0.1,0,0.1,0,0.2c0,0.3-0.1,0.5-0.1,0.8c-0.1,0.4-0.1,0.6-0.1,0.8c-0.1,0.3-0.1,0.6-0.2,0.8
				c0,0,0,0.1,0,0.1c-0.1,0.2-0.1,0.5-0.2,0.7c0,0,0,0.1,0,0.1c-0.1,0.2-0.2,0.4-0.2,0.7c-0.1,0.3-0.2,0.5-0.3,0.7
				c-0.1,0.3-0.2,0.5-0.3,0.7c0,0,0,0.1-0.1,0.1c-0.1,0.2-0.2,0.4-0.3,0.5c0,0,0,0.1-0.1,0.1c-0.1,0.2-0.2,0.4-0.4,0.5
				c-0.1,0.2-0.3,0.3-0.4,0.5c0,0,0,0-0.1,0.1c-0.1,0.1-0.3,0.3-0.4,0.4c0,0-0.1,0.1-0.1,0.1c-0.1,0.1-0.3,0.3-0.4,0.4
				c0,0,0,0-0.1,0.1c-0.1,0.1-0.3,0.2-0.5,0.3c-0.2,0.1-0.4,0.2-0.5,0.3c0,0-0.1,0-0.1,0.1c-0.2,0.1-0.3,0.2-0.5,0.3
				c0,0-0.1,0-0.1,0c-0.2,0.1-0.4,0.2-0.5,0.2c-0.1,0.1-0.2,0.1-0.3,0.1c-0.1-6.4-4.6-14.2-10.2-17.5c-5.6-3.3-10.2-0.6-10.3,5.8
				c0,0,0.2,0.3,0.5,0.7c-0.1-0.2-0.3-0.4-0.4-0.6c-0.3-0.4-0.4-0.6-0.6-0.9c0,0-0.1-0.1-0.1-0.1c-0.2-0.3-0.4-0.6-0.5-0.8
				c0-0.1-0.1-0.1-0.1-0.2c-0.2-0.3-0.3-0.6-0.5-0.9c-0.2-0.3-0.3-0.6-0.5-0.9c0-0.1-0.1-0.1-0.1-0.2c-0.2-0.3-0.3-0.6-0.5-0.9
				c0-0.1-0.1-0.1-0.1-0.2c-0.1-0.3-0.3-0.6-0.4-0.9c-0.2-0.4-0.3-0.7-0.5-1c0-0.1-0.1-0.1-0.1-0.2c-0.1-0.3-0.3-0.6-0.4-0.9
				c-0.2-0.4-0.3-0.7-0.4-1c0,0,0-0.1-0.1-0.1c-0.1-0.3-0.2-0.6-0.3-0.9c0-0.1,0-0.1-0.1-0.2c-0.2-0.6-0.4-1.3-0.6-1.9
				c0-0.1,0-0.1-0.1-0.2c-0.1-0.3-0.2-0.6-0.2-0.9c0-0.1,0-0.1,0-0.2c-0.1-0.3-0.1-0.6-0.2-0.9c-0.1-0.4-0.1-0.7-0.2-1
				c0-0.1,0-0.1,0-0.2c0-0.3-0.1-0.6-0.1-0.9c0-0.4-0.1-0.7-0.1-1c0-0.1,0-0.1,0-0.2c0-0.3,0-0.6-0.1-0.9c0-0.1,0-0.1,0-0.2
				c0-0.3,0-0.6,0-0.9c0-1,0.1-1.9,0.2-2.8c0.2-1.5,0.6-2.8,1.1-3.9c0.1-0.2,0.2-0.4,0.3-0.7c2.7-4.9,8.5-6,15.1-2.2
				c6,3.5,11.2,10.1,14.2,17.2c0.2,0.5,0.4,0.9,0.6,1.4C213.1,111.7,213.3,112.4,213.5,113.1z M198.4,113.6c3.4,2,6.2,0.4,6.3-3.6
				c0-4-2.8-8.8-6.2-10.8c-3.4-2-6.2-0.4-6.3,3.6C192.2,106.8,195,111.6,198.4,113.6"/>
			<path class="st8" d="M213.5,113.1c0.5,1.7,0.9,3.5,1.1,5.2c0.1,1,0.2,2,0.2,3c0,0.3,0,0.6,0,0.9c0,0,0,0.1,0,0.1
				c0,0.3,0,0.6-0.1,0.8c0,0.1,0,0.1,0,0.2c0,0.3-0.1,0.5-0.1,0.8c-0.1,0.4-0.1,0.6-0.1,0.8c-0.1,0.3-0.1,0.6-0.2,0.8
				c0,0,0,0.1,0,0.1c-0.1,0.2-0.1,0.5-0.2,0.7c0,0,0,0.1,0,0.1c-0.1,0.2-0.2,0.4-0.2,0.7c-0.1,0.3-0.2,0.5-0.3,0.7
				c-0.1,0.3-0.2,0.5-0.3,0.7c0,0,0,0.1-0.1,0.1c-0.1,0.2-0.2,0.4-0.3,0.5c0,0,0,0.1-0.1,0.1c-0.1,0.2-0.2,0.4-0.4,0.5
				c-0.1,0.2-0.3,0.3-0.4,0.5c0,0,0,0-0.1,0.1c-0.1,0.1-0.3,0.3-0.4,0.4c0,0-0.1,0.1-0.1,0.1c-0.1,0.1-0.3,0.3-0.4,0.4
				c0,0,0,0-0.1,0.1c-0.1,0.1-0.3,0.2-0.5,0.3c-0.2,0.1-0.4,0.2-0.5,0.3c0,0-0.1,0-0.1,0.1c-0.2,0.1-0.3,0.2-0.5,0.3
				c0,0-0.1,0-0.1,0c-0.2,0.1-0.4,0.2-0.5,0.2c-0.1,0.1-0.2,0.1-0.3,0.1c-0.1-6.4-4.6-14.2-10.2-17.5c-5.6-3.3-10.2-0.6-10.3,5.8
				c0,0,0.2,0.3,0.5,0.7c-0.1-0.2-0.3-0.4-0.4-0.6c-0.3-0.4-0.4-0.6-0.6-0.9c0,0-0.1-0.1-0.1-0.1c-0.2-0.3-0.4-0.6-0.5-0.8
				c0-0.1-0.1-0.1-0.1-0.2c-0.2-0.3-0.3-0.6-0.5-0.9c-0.2-0.3-0.3-0.6-0.5-0.9c0-0.1-0.1-0.1-0.1-0.2c-0.2-0.3-0.3-0.6-0.5-0.9
				c0-0.1-0.1-0.1-0.1-0.2c-0.1-0.3-0.3-0.6-0.4-0.9c-0.2-0.4-0.3-0.7-0.5-1c0-0.1-0.1-0.1-0.1-0.2c-0.1-0.3-0.3-0.6-0.4-0.9
				c-0.2-0.4-0.3-0.7-0.4-1c0,0,0-0.1-0.1-0.1c-0.1-0.3-0.2-0.6-0.3-0.9c0-0.1,0-0.1-0.1-0.2c-0.2-0.6-0.4-1.3-0.6-1.9
				c0-0.1,0-0.1-0.1-0.2c-0.1-0.3-0.2-0.6-0.2-0.9c0-0.1,0-0.1,0-0.2c-0.1-0.3-0.1-0.6-0.2-0.9c-0.1-0.4-0.1-0.7-0.2-1
				c0-0.1,0-0.1,0-0.2c0-0.3-0.1-0.6-0.1-0.9c0-0.4-0.1-0.7-0.1-1c0-0.1,0-0.1,0-0.2c0-0.3,0-0.6-0.1-0.9c0-0.1,0-0.1,0-0.2
				c0-0.3,0-0.6,0-0.9c0-1,0.1-1.9,0.2-2.8c0.2-1.5,0.6-2.8,1.1-3.9c0.1-0.2,0.2-0.4,0.3-0.7c2.7-4.9,8.5-6,15.1-2.2
				c6,3.5,11.2,10.1,14.2,17.2c0.2,0.5,0.4,0.9,0.6,1.4C213.1,111.7,213.3,112.4,213.5,113.1z M198.4,113.6c3.4,2,6.2,0.4,6.3-3.6
				c0-4-2.8-8.8-6.2-10.8c-3.4-2-6.2-0.4-6.3,3.6C192.2,106.8,195,111.6,198.4,113.6"/>
			<g>
				<path class="st12" d="M198.5,99.3c3.4,2,6.2,6.8,6.2,10.8c0,3.9-2.8,5.6-6.3,3.6c-3.4-2-6.2-6.8-6.2-10.8
					C192.2,98.9,195,97.3,198.5,99.3z"/>
			</g>
			<g>
				<path class="st13" d="M244.1,192.9c1.3,0.7,2.3,2.6,2.3,4l0,9.8c0,1.5-1.1,2.1-2.3,1.3l-89.8-51.9c-1.3-0.7-2.3-2.5-2.3-4l0-9.8
					c0-1.5,1.1-2.1,2.3-1.3L244.1,192.9z"/>
			</g>
			<path class="st15" d="M209.1,208.9c3.1,1.8,5.5,6.1,5.5,9.6l0,2.3c0,3.5-2.5,4.9-5.6,3.2L180,207.1c-3.1-1.8-5.5-6.1-5.5-9.6
				l0-2.3c0-3.5,2.5-4.9,5.6-3.2L209.1,208.9z"/>
		</g>
		<ellipse class="st16" cx="146.4" cy="345.2" rx="33" ry="19.6"/>
		<g>
			<path class="st17" d="M179.9,211.9c0,0,2-1.3,2.5-2c0.5-0.7,1.1-4.4,0.5-4.6c-0.7-0.2-1.2,2.5-1.2,2.5s-0.2-6.9-1-7.9
				c-0.8-1-3.5,3.9-3.6,4.8c-0.2,0.8-0.8,4.3-0.8,4.3S177.3,211.9,179.9,211.9z"/>
			<path class="st11" d="M129.7,231.7c0,0-5.2,5.2-1.5,11.4c3.6,6.2,28.3-9.2,30.9-11.5c2.6-2.3,19.9-17.7,20.9-19.7
				c1-2-1.2-3.9-3.8-3.6c-2.6,0.3-13.1,11.5-21.4,16.8C154.8,225.1,135.2,229.5,129.7,231.7z"/>
			<path class="st11" d="M132.7,341c0,0-0.4,3.1,0.1,4.4c0.6,1.1,2.8,2,4.4,0.8c1.6-1.1,4.2-4,4.2-4s4.5-2.4,4.9-3.7
				c0.4-1.3-1.1-2.4-2.4-2.1c-1.3,0.3-4.9,2.5-6.6,2.5C135.7,339,133.3,339.4,132.7,341z"/>
			<path class="st18" d="M128.1,274.8c0,0,4,65.3,4.4,67.2c0.5,1.9,5.6,3,6.6,0c0.6-1.9,2.1-62.3,2.1-62.3L128.1,274.8z"/>
			<path class="st11" d="M145.8,344.9c-0.2,0.2-0.3,0.5-0.3,0.8c0,0.9,0,2.9,0.5,3.7c0.7,1,2.7,2.1,4.9,0.9c1.8-1,7.5-5.2,8.6-6.1
				c0.7-0.6,1-1.3,1.1-1.8c0.1-0.5-0.1-1-0.6-1.2c-0.8-0.4-2.2-0.8-3.4-0.4c-1.9,0.6-4.2,2.6-6.8,2.5
				C148,343.2,146.5,344.3,145.8,344.9z"/>
			<path class="st19" d="M154.6,275.5c-0.3-2.7-3.5-3.6-6.5-2.7c-5.7-0.3-14.5-0.1-14.9,4.4c-0.5,6.6,2.6,11.2,5.6,14.4
				c2.2,2.4,3.6,6.9,4.3,9c0.5,17.3,1.7,41.7,2.4,44.1c1.2,3.8,6.8,3.6,7.1-0.1C153.6,332.3,154.6,275.5,154.6,275.5z"/>
			<path class="st11" d="M154.6,277.5c-0.7,3.4-10.2,5-15.8,4.1c-5.6-0.9-11.6-3.6-11.4-10.1c0,0,1.1-15.5,0.6-18.2
				c-0.4-2.8-1.5-7.6-1.5-12.7c0-5.1,3.2-8.9,3.2-8.9s3.1-3.6,13-1.6c0,0,8,1.7,11.7,7.7c0,0,2.5,6.5,1.7,20.1
				C155.2,271.5,154.6,277.5,154.6,277.5z"/>
			<path class="st20" d="M135,223c0,0,0.8,4.9,0,7.2c-0.1,1.1,4.8,4.9,9.2,4c2.5-0.6,2.4-1.8,2.4-1.8s-2.1-3.5-1.8-6.9
				C145,222,138,222.3,135,223z"/>
			<g>
				<path class="st17" d="M151.5,213c0,6.4-5.2,11.7-11.7,11.7s-11.7-5.2-11.7-11.7c0-6.4,5.2-11.7,11.7-11.7S151.5,206.6,151.5,213
					z"/>
				<path class="st17" d="M151.5,213.8c0,0,0.1,11.7-2.4,14c-2.5,2.4-6.5-2.2-12.7-3.7c-6.2-1.6,5.1-13.8,5.1-13.8L151.5,213.8z"/>
			</g>
			<path class="st17" d="M177.4,231.1c0,0-1.1-4.6-0.7-4.9c0.4-0.4,1.8,1.6,1.8,1.6s0.7-4.7,1.4-5.2c0.6-0.5,3.1,2,3.5,3.3
				c0.4,1.4-1.5,6.8-2.2,6.9C180.4,232.9,177.8,233.3,177.4,231.1z"/>
			<path class="st11" d="M150.9,236.5c0,0-5.2,2.5-3,8.9c2.2,6.4,18.7,8.9,20.7,6.9c2-2,10.6-12.1,13.1-19.7c0,0-1-3-4.9-1.7
				c0,0-9.4,11.8-10.8,13.1C164.5,245.1,153.4,236,150.9,236.5z"/>
			<path class="st21" d="M129.9,204.1c0,0,3.6-4.4,9.9-4.8c6.3-0.4,9.3,1.6,11.7,1.4c2.4-0.2,4.6,1.8,3.8,4.8
				c-0.8,3-2.6,6.1-6.7,6.1c-4,0-5-0.6-5-0.6s3.2,1.4,3.6,4.2c0.4,2.8,0.4,7.1,0.4,7.1h-1c0,0-0.8-4.6-2.4-4.6c-1.6,0-1.6,5-0.2,5.9
				c1.4,0.8,1.4,0.8,1.4,0.8s-2.7,5-4.2,5.2c-1.5,0.2-6.3-3.4-6.3-3.4s-8.1-3.8-8.9-10.1C125.2,209.8,129.9,204.1,129.9,204.1z"/>
		</g>
		<g>
			<g>
				<ellipse class="st16" cx="42.3" cy="312.7" rx="33" ry="19.6"/>
				<g>
					<g>
						<path class="st22" d="M25.6,259.1c0,0,2.2,14,4.1,21.8c0,0,0.4,12.9,0.7,17.4c0.4,4.4,1.5,14,1.5,14s1.3,1.1,2.8,0.4
							c0,0,1.8-27.5,2.2-32c0.4-4.4,1.7-24.4,1.7-24.4S34.3,252.4,25.6,259.1z"/>
						<path class="st22" d="M39.5,253.5c0,0,2.2,14,4.1,21.8c0,0,0.4,12.9,0.7,17.4c0.4,4.4,1.5,14,1.5,14s1.3,1.1,2.8,0.4
							c0,0,1.8-27.5,2.2-32c0.4-4.4,0.6-24.2,0.6-24.2S48.2,246.9,39.5,253.5z"/>
						<path class="st11" d="M28.4,240.1c0,0-5.2,5.7-2.2,25.1c0.2,2.8,2,9.9,2,9.9s6.8,1.1,15-2c8.1-3.1,8.3-4.8,8.3-4.8
							s0.4-24.3-1.5-30.6C48.2,231.4,28.4,240.1,28.4,240.1z"/>
						<path class="st23" d="M48.6,305.8c0,0-0.2,1.4,1.3,2.5c1.5,1.1,4.3,3.1,4.7,4.3c0,0.9-3.5-0.1-5.1-0.9c-1.6-0.8-3-2.8-3-2.8
							l0.1,0.8c0,0-0.6,0-1-0.5c-0.5-0.5,0.1-3.3,0.1-3.3L48.6,305.8z"/>
						<path class="st23" d="M34.8,312.2c0,0-0.2,1.4,1.3,2.5c1.5,1.1,4.3,3.1,4.7,4.3c0,0.9-3.5-0.1-5.1-0.9c-1.6-0.8-3-2.8-3-2.8
							l0.1,0.8c0,0-0.6,0-1-0.5c-0.5-0.5,0.1-3.3,0.1-3.3L34.8,312.2z"/>
					</g>
					
						<linearGradient id="SVGID_2_" gradientUnits="userSpaceOnUse" x1="526.5899" y1="251.0912" x2="540.3889" y2="177.4972" gradientTransform="matrix(-1 0 0 1 595.2031 0)">
						<stop  offset="0" style="stop-color:#765EFB"/>
						<stop  offset="0.2466" style="stop-color:#7D65FB"/>
						<stop  offset="0.6056" style="stop-color:#9078FB"/>
						<stop  offset="0.94" style="stop-color:#A990FC"/>
					</linearGradient>
					<path class="st24" d="M48.3,203.4c0,0,4.8,0.8,7.9,11.2c1.9,6.9,4.6,7.5,7.7,8.1c3.1,0.6,16.2,0,17.2,0c1,0,2.3,2.3,0.8,3.9
						c-1.5,1.7-19.5,3.3-23.1,3.3c-3.5,0-11.6-6.6-15-12.1C40.6,212.5,44,203,48.3,203.4z"/>
					<path class="st11" d="M46,177.4c0,0,4.8,6.1,3.7,13c-1,6.9-7.1,6.5-8.1,10.3c-1,3.7,2.9,9.1-2.5,12.7
						c-5.4,3.5-7.9,2.7-9.4,10.2s-6.6,11.4-15.6,12.3c-8.9,0.8-15.2-10-12.9-17.9c2.3-7.9,10.2-5.4,11.8-11.8c1.7-6.4,1-11.5,6.6-14
						c5.6-2.5,3.5-11.9,9.1-14.9C34.7,174.2,41.9,172.6,46,177.4z"/>
					<g>
						
							<linearGradient id="SVGID_3_" gradientUnits="userSpaceOnUse" x1="547.9124" y1="242.7232" x2="575.8639" y2="187.1739" gradientTransform="matrix(-1 0 0 1 595.2031 0)">
							<stop  offset="0" style="stop-color:#765EFB"/>
							<stop  offset="0.2466" style="stop-color:#7D65FB"/>
							<stop  offset="0.6056" style="stop-color:#9078FB"/>
							<stop  offset="0.94" style="stop-color:#A990FC"/>
						</linearGradient>
						<path class="st25" d="M33.6,201.3c0,0-10.3,7.3-11.3,9.8c-1,2.4-2.5,10,0.9,13.8c5.8,6.5,2.3,17.5,3.1,20.8
							c0.8,3.3,8.6,3.7,14,2.6c5.4-1.1,10.5-3.8,10.3-10.2c-0.2-6.3,1.5-15.1,1.8-17.9c0.3-2.9,0-10-1.4-14.9
							c-0.3-1-3.7-2.1-3.7-2.1S43.7,200.9,33.6,201.3z"/>
						<path class="st20" d="M42.5,199.9c0,0,0,0.1,0,0.3c0.1,0.8,0.5,2.7,0.6,3.5c0.1,0.8-0.8,2.1-2.9,2.1c-2.1,0-5.6-0.9-6.8-3.4
							c0.1-0.4-0.1-5-0.3-7.3L42.5,199.9z"/>
						<path class="st17" d="M48.3,186.1c-1.1-6-5.8-9.3-11.2-8.1c0,0-5.8,0.6-8.4,5.7c-2.6,5.1,1.2,9.4,3.6,12.1
							c1,1.1,1.8,2,2.3,2.5c0.2,0.2,0.3,0.4,0.5,0.6c0,0,0.1,0.1,0.1,0.1l0,0c1.7,1.7,3.5,2.6,4.9,3c2.3,0.7,5.1,0.3,6.6-1.3
							C48.3,199,49.4,192,48.3,186.1z"/>
					</g>
					<path class="st11" d="M49.3,190.1c0,0-4.3,0.4-6.8-2.5c-2.5-2.9-6,0-8.9-2.5c0,0,1.2,3.1,0,6.2c-1.2,3.1-1.7,7.9-1.7,7.9
						l-5.4-8.5v-7.5l6.9-6.4l9.1-0.4l4.4,4.2C46.9,180.5,49.7,187,49.3,190.1z"/>
					
						<linearGradient id="SVGID_4_" gradientUnits="userSpaceOnUse" x1="544.7146" y1="232.854" x2="569.9562" y2="232.854" gradientTransform="matrix(-1 0 0 1 595.2031 0)">
						<stop  offset="0" style="stop-color:#DE5013"/>
						<stop  offset="1" style="stop-color:#DD3F99"/>
					</linearGradient>
					<path class="st26" d="M25.5,226.4l12.9,4.1l12-3.4c-0.2,0.5-3.4,10.3-10.3,12c-5,1.3-10.8-3.1-13.7-5.7
						c-0.2-1.8-0.5-3.6-1.3-5.3L25.5,226.4z"/>
					<g>
						
							<linearGradient id="SVGID_5_" gradientUnits="userSpaceOnUse" x1="555.9095" y1="190.2078" x2="556.6172" y2="235.8503" gradientTransform="matrix(-1 0 0 1 595.2031 0)">
							<stop  offset="0" style="stop-color:#765EFB"/>
							<stop  offset="0.2466" style="stop-color:#7D65FB"/>
							<stop  offset="0.6056" style="stop-color:#9078FB"/>
							<stop  offset="0.94" style="stop-color:#A990FC"/>
						</linearGradient>
						<path class="st27" d="M26.1,214.2c0,0-6.9-1.7-3.9,7.7c2.9,9.4,12.7,16.2,16.2,15.8c3.5-0.4,17.9-15.6,17.9-17.5
							c0-1.9-1.7-3.1-3.3-2.7c-1.7,0.4-12.7,12.3-13.7,11.8C38.2,228.9,31.7,218.1,26.1,214.2z"/>
						<path class="st17" d="M54.3,220.9c0,0-1.9-0.6-1.4-2.6c0.6-2.1,4.3-3.7,4.9-3.8c0.6-0.1,6.2,1,6.4,1.7c0.2,0.7-1,1-2.4,0.7
							c-1.4-0.3-3.4-0.5-3.4-0.5s1.5,1.6,1.4,2.3c-0.1,0.7-0.9,2.1-2.1,2.6c-1.1,0.6-2.5-0.7-2.5-0.7L54.3,220.9z"/>
					</g>
					<path class="st17" d="M79.4,223c0,0,4.5-3.9,4.8-3.2c0.3,0.7-1.5,2.6-1.5,2.6s6.1-2.3,6.1-1.5c0.1,0.8-3.2,3.3-4.1,3.8
						c-0.9,0.6-4,1.4-4,1.4S79.1,223.9,79.4,223z"/>
				</g>
			</g>
			<g class="st28">
				<path class="st2" d="M58.9,188.6c-1.5,0.9-2.7,3-2.7,4.7l0.2,63.7c0,4.1,2.9,5.7,6.4,3.7l37.9-21.9c1.5-0.9,2.7-3,2.7-4.7
					l-0.2-63.7c0-4.1-2.9-5.7-6.4-3.7L58.9,188.6z"/>
			</g>
			<g>
				<g>
					<g>
						<path class="st12" d="M64.7,211.7c-0.4,0.3-0.8,0.9-0.8,1.4l0,3.4c0,0.5,0.4,0.7,0.8,0.5L95.7,199c0.4-0.3,0.8-0.9,0.8-1.4
							l0-3.4c0-0.5-0.4-0.7-0.8-0.5L64.7,211.7z"/>
					</g>
					<g>
						<path class="st12" d="M64.7,219c-0.4,0.3-0.8,0.9-0.8,1.4l0,3.4c0,0.5,0.4,0.7,0.8,0.5l30.9-17.9c0.4-0.3,0.8-0.9,0.8-1.4
							l0-3.4c0-0.5-0.4-0.7-0.8-0.5L64.7,219z"/>
					</g>
				</g>
				<path class="st12" d="M76.8,224.5c-1.1,0.6-1.9,2.1-1.9,3.3l0,0.8c0,1.2,0.9,1.7,1.9,1.1l10-5.8c1.1-0.6,1.9-2.1,1.9-3.3l0-0.8
					c0-1.2-0.9-1.7-1.9-1.1L76.8,224.5z"/>
			</g>
		</g>
	</g>
</g>
</svg>
